<?xml version="1.0" encoding="UTF-8" standalone="no"?>
<svg
   xmlns:osb="http://www.openswatchbook.org/uri/2009/osb"
   xmlns:dc="http://purl.org/dc/elements/1.1/"
   xmlns:cc="http://creativecommons.org/ns#"
   xmlns:rdf="http://www.w3.org/1999/02/22-rdf-syntax-ns#"
   xmlns:svg="http://www.w3.org/2000/svg"
   xmlns="http://www.w3.org/2000/svg"
   xmlns:sodipodi="http://sodipodi.sourceforge.net/DTD/sodipodi-0.dtd"
   xmlns:inkscape="http://www.inkscape.org/namespaces/inkscape"
   inkscape:version="1.0rc1 (09960d6, 2020-04-09)"
   sodipodi:docname="playing.svg"
   width="629.15698mm"
   height="243.87238mm"
   viewBox="0 0 629.15698 243.87238"
   version="1.1"
   id="SVGRoot">
  <defs
     id="defs3257">
    <linearGradient
       osb:paint="solid"
       id="linearGradient1302">
      <stop
         id="stop1300"
         offset="0"
         style="stop-color:#000000;stop-opacity:1;" />
    </linearGradient>
  </defs>
  <sodipodi:namedview
     inkscape:window-maximized="0"
     inkscape:window-y="0"
     inkscape:window-x="0"
     inkscape:window-height="900"
     inkscape:window-width="1440"
     showgrid="false"
     inkscape:document-rotation="0"
     inkscape:current-layer="layer1"
     inkscape:document-units="mm"
     inkscape:cy="160.50178"
     inkscape:cx="1198.4601"
     inkscape:zoom="0.29673365"
     inkscape:pageshadow="2"
     inkscape:pageopacity="0.0"
     borderopacity="1.0"
     bordercolor="#666666"
     pagecolor="#ffffff"
     id="base" />
  <metadata
     id="metadata3260">
    <rdf:RDF>
      <cc:Work
         rdf:about="">
        <dc:format>image/svg+xml</dc:format>
        <dc:type
           rdf:resource="http://purl.org/dc/dcmitype/StillImage" />
      </cc:Work>
    </rdf:RDF>
  </metadata>
  <g
     transform="translate(2.6749578,-55.282463)"
     id="layer1"
     inkscape:groupmode="layer"
     inkscape:label="Layer 1">
    <rect
       y="209.48975"
       x="-2.6992581"
       height="89.6651"
       width="640.77277"
       id="rect3955"
       style="fill:#e2ae69;fill-opacity:1;stroke:none;stroke-width:22.6522;stroke-dashoffset:37.7953" />
    <rect
       transform="scale(1,-1)"
       y="-281.24503"
       x="-10.27536"
       height="3"
       width="644.7807"
       id="rect3968"
       style="fill:#5ab474;fill-opacity:1;stroke:none;stroke-width:7.72464;stroke-dashoffset:37.7953" />
    <rect
       style="fill:#5ab474;fill-opacity:1;stroke:none;stroke-width:7.10773;stroke-dashoffset:37.7953"
       id="rect3972"
       width="614.46454"
       height="2.9363945"
       x="14.826442"
       y="224.34538" />
    <g
       transform="matrix(0.6561,0,0,1,227.66712,16.654291)"
       id="g3966">
      <rect
         style="fill:#1e3f8e;fill-opacity:1;stroke:none;stroke-width:8.56244;stroke-dashoffset:37.7953"
         id="rect3957"
         width="20"
         height="225.13268"
         x="212"
         y="42.394234" />
      <ellipse
         style="fill:#1e3f8e;fill-opacity:1;stroke:none;stroke-width:7.99999;stroke-dashoffset:37.7953"
         id="path3959"
         cx="222"
         cy="42.947021"
         rx="10"
         ry="3.1239874" />
      <ellipse
         ry="3.1239874"
         rx="10"
         cy="267.5491"
         cx="222"
         id="ellipse3961"
         style="fill:#1e3f8e;fill-opacity:1;stroke:none;stroke-width:7.99999;stroke-dashoffset:37.7953" />
    </g>
    <rect
       transform="rotate(120)"
       y="-127.94917"
       x="186.87558"
       height="2.9363945"
       width="94.718552"
       id="rect3985"
       style="fill:#5ab474;fill-opacity:1;stroke:none;stroke-width:2.79062;stroke-dashoffset:37.7953" />
    <rect
       transform="matrix(-0.36753786,0.93000856,-0.98389509,-0.17874691,0,0)"
       y="-332.69775"
       x="177.88217"
       height="2.882766"
       width="61.273613"
       id="rect3987"
       style="fill:#5ab474;fill-opacity:1;stroke:none;stroke-width:2.2239;stroke-dashoffset:37.7953" />
    <g
       transform="matrix(-1,0,0,1,409.82595,-109.60384)"
       id="g4217">
      <path
         style="fill:#ffe0bd;fill-opacity:1;stroke:none;stroke-width:0.132292px;stroke-linecap:butt;stroke-linejoin:miter;stroke-opacity:1"
         d="m 160.58314,254.19101 0.23231,5.57537 0.69692,3.83305 2.55538,3.83308 1.39384,3.25229 1.27769,4.06536 1.04538,6.38845 -0.46462,1.04538 -2.20691,0.69691 -1.04538,0.11615 -0.69692,-0.34845 -4.87845,-12.19611 -2.32307,-3.01998 -1.04538,-2.43922 -1.50999,-4.18153 -1.16154,-6.27229 2.09077,0.34847 z"
         id="path1520"
         inkscape:connector-curvature="0" />
      <path
         style="fill:#ffe0bd;fill-opacity:1;stroke:none;stroke-width:0.132292px;stroke-linecap:butt;stroke-linejoin:miter;stroke-opacity:1"
         d="m 148.59172,253.12047 -0.79944,4.48574 -0.0444,4.21926 1.02151,0.84386 1.06592,1.46563 0.79944,1.86537 0.6662,1.73211 0.79944,2.08743 -0.0444,1.15475 -0.22206,0.6662 -0.53296,0.79944 -0.79944,0.7106 -1.02151,0.26649 -1.28798,-0.3109 -4.79664,-5.6849 -1.37682,-1.15475 -1.24357,-1.86536 -0.0888,-1.95419 0.13324,-1.77653 -0.84385,-3.41982 -0.75502,-3.59748 0.0444,-0.39972 2.13184,0.3109 1.19916,0.0444 0.6662,-0.48854 1.19916,-0.3109 0.62178,-0.26648 z"
         id="path1522"
         inkscape:connector-curvature="0" />
      <path
         style="fill:#e7e0d8;fill-opacity:1;stroke:none;stroke-width:0.132292px;stroke-linecap:butt;stroke-linejoin:miter;stroke-opacity:1"
         d="m 148.192,273.10645 0.79944,0.97709 1.15474,1.82095 1.19916,2.13184 0.26648,0.84386 1.24357,0.35529 1.11034,-1.19915 0.75503,-0.93267 0.17765,-1.55447 -0.48855,-1.06593 -0.0444,-1.06591 -0.39972,-0.53296 -0.84385,-1.24357 -1.02151,-1.82095 -0.0444,1.15475 -0.75502,1.46564 -0.79944,0.7106 -1.02151,0.26649 z"
         id="path1524"
         inkscape:connector-curvature="0" />
      <path
         style="fill:#e7e0d8;fill-opacity:1;stroke:none;stroke-width:0.132292px;stroke-linecap:butt;stroke-linejoin:miter;stroke-opacity:1"
         d="m 163.37083,282.6486 0.76805,2.12129 0.61099,2.54041 0.12863,1.38276 v 0.93255 l 0.64314,2.05806 0.28941,0.25725 -0.0643,-1.1255 0.0965,-0.4502 0.61099,-0.25725 2.82982,0.0321 0.48236,0.35374 0.25725,0.54667 0.25726,-0.41804 -0.19294,-0.96471 -0.2251,-0.80393 0.0322,-0.35373 -0.28941,-0.48235 -0.61098,-1.06119 -0.38589,-1.83296 -0.32157,-1.76863 -0.12863,-1.31844 -0.37386,-0.89793 -0.46462,1.04538 -2.20691,0.69691 -1.04538,0.11615 z"
         id="path1526"
         inkscape:connector-curvature="0" />
      <path
         style="fill:#9d9c8e;fill-opacity:1;stroke:none;stroke-width:0.132292px;stroke-linecap:butt;stroke-linejoin:miter;stroke-opacity:1"
         d="m 153.81646,272.64666 2.44394,-0.51451 0.57882,0.48236 0.4502,0.93255 0.16079,0.77178 0.0322,0.70745 -0.38589,1.3506 -0.64314,1.35059 -0.41804,0.86824 -0.38589,0.90041 -0.0643,0.99687 -0.19294,1.35059 -0.25726,1.47923 -0.51451,1.5757 -0.16079,0.6753 -0.80393,0.96471 -0.61098,0.4502 -0.73962,-0.16079 -0.61098,-0.28941 -0.2251,-0.99687 0.0322,-0.38589 -0.0322,-1.06119 v -1.44706 l -0.16079,-0.80393 -0.28941,-1.38275 -0.28941,-1.1255 -0.6753,-0.6753 -0.0322,-1.06119 0.28941,-0.80392 0.16079,-0.28942 0.87322,1.53082 0.26648,0.84386 1.24357,0.35529 1.86537,-2.13182 0.17765,-1.55447 -0.48855,-1.06593 -0.0444,-1.06591 z"
         id="path1528"
         inkscape:connector-curvature="0" />
      <path
         style="fill:#d1c8ae;fill-opacity:1;stroke:none;stroke-width:0.132292px;stroke-linecap:butt;stroke-linejoin:miter;stroke-opacity:1"
         d="m 155.5851,272.26078 0.35373,-0.61099 0.93255,-0.35372 0.86824,0.61099 0.77177,0.7396 0.51452,1.1255 -0.12863,1.18981 -0.41804,1.09334 -0.61099,0.83608 -0.6753,0.86825 -0.57883,0.96471 -0.16078,0.86824 -0.16079,1.8008 0.0322,0.61099 -0.0643,1.18981 -0.25726,0.93255 -0.41804,0.86825 -0.64314,0.96471 -0.64315,0.67529 -0.77177,0.48237 -0.48235,-0.12863 0.61098,-0.4502 0.80393,-0.96471 0.16079,-0.6753 0.51451,-1.5757 0.4502,-2.82982 0.0643,-0.99687 0.30142,-0.927 1.14565,-2.19224 0.38589,-1.3506 -0.19295,-1.47923 -0.4502,-0.93255 -0.57882,-0.48236 z"
         id="path1530"
         inkscape:connector-curvature="0"
         sodipodi:nodetypes="cccccccccccccccccccccccccccccccccc" />
      <path
         style="fill:#9d9c8e;fill-opacity:1;stroke:none;stroke-width:0.132292px;stroke-linecap:butt;stroke-linejoin:miter;stroke-opacity:1"
         d="m 164.05621,301.67203 0.0943,-1.32032 0.44011,-1.28889 0.40867,-0.81734 v -1.10027 l 0.12574,-1.3832 0.0943,-1.1317 0.0943,-0.97453 -0.0314,-1.28888 -0.25149,-0.94309 0.25149,-0.44011 0.23942,0.69997 0.28941,0.25725 -0.0643,-1.1255 0.0965,-0.4502 0.61099,-0.25725 2.82982,0.0321 0.48236,0.35374 0.25725,0.54667 0.25726,-0.41804 -0.41804,-1.76864 0.0322,-0.35373 -0.46319,-0.72291 0.66016,0.31436 0.59729,0.53442 0.47154,0.88022 0.28293,0.22005 0.44011,0.62872 0.12574,0.81735 -0.0943,0.88022 -0.4401,1.88617 -0.3458,1.38319 -0.0629,1.47751 -0.25149,0.75446 -0.22006,1.10027 -0.56585,1.35177 -0.81734,1.00596 -1.47751,0.91165 -1.38319,0.40867 -1.54038,-0.0943 z"
         id="path1532"
         inkscape:connector-curvature="0" />
      <path
         style="fill:#d1c8ae;fill-opacity:1;stroke:none;stroke-width:0.132292px;stroke-linecap:butt;stroke-linejoin:miter;stroke-opacity:1"
         d="m 164.62206,302.8666 -0.72303,-0.78591 -0.15718,-0.81733 0.40867,-0.91165 -0.0943,1.32032 0.75447,0.56585 1.54038,0.0943 1.38319,-0.40867 1.47751,-0.91165 0.81734,-1.00596 0.56585,-1.35177 0.22006,-1.10027 0.25149,-0.75446 0.0629,-1.47751 0.7859,-3.26936 0.0943,-0.88022 -0.12574,-0.81735 -0.44011,-0.62872 0.28293,-0.15719 0.53441,0.40868 0.31437,0.84878 0.0314,0.97452 -0.18862,1.19458 -0.4401,1.16315 -0.40867,0.97452 -0.15718,0.91165 -0.0314,1.25745 0.25149,1.06883 -0.15718,1.00596 -0.56586,0.97453 -0.50298,0.69159 -0.88021,0.75448 -0.91165,0.62871 -1.25745,0.5973 -1.19458,0.0629 z"
         id="path1536"
         inkscape:connector-curvature="0" />
      <path
         style="fill:#0a0a08;fill-opacity:1;stroke:none;stroke-width:0.132292px;stroke-linecap:butt;stroke-linejoin:miter;stroke-opacity:1"
         d="m 159.41061,231.58144 -0.11421,0.68524 -0.34262,1.02786 0.64717,0.4949 -0.0761,0.91366 -0.22841,0.22841 0.11421,0.41876 -0.0381,1.63697 -0.11421,0.53296 0.64718,1.18014 0.0381,0.68524 -0.15227,0.79945 0.34262,1.14207 0.38069,2.43642 0.15228,0.38069 -0.11421,0.60911 -0.11421,0.41876 0.19035,1.06592 0.1142,1.06594 0.0761,0.6091 -0.0761,0.64717 0.0761,1.25628 0.0761,1.06593 v 0.91366 l -0.0381,0.4949 0.26648,0.83752 0.0761,0.79945 -0.61671,0.26306 -6.03997,0.69693 -2.09077,-0.34847 -0.46525,0.0357 -1.18014,-0.68525 -0.95172,-1.06592 -1.26357,0.29652 -3.50866,-0.57738 -0.62178,0.26648 -1.19916,0.3109 -0.6662,0.48854 -3.331,-0.35531 -0.33544,-1.34341 v -2.208 -2.5887 -1.44662 l 0.15228,-0.34262 0.26648,-1.94152 -0.19035,-0.57103 0.30456,-0.3807 -0.11421,-1.37048 0.19034,-0.41876 -0.19034,-1.33241 0.38069,-0.45683 -0.26648,-0.76138 0.41876,-0.41876 -0.11421,-1.29435 0.26648,-0.49489 -0.11421,-0.83752 0.15228,-0.15228 -0.0761,-0.64717 0.4949,-0.41876 0.15228,-1.75118 0.76138,0.3807 3.19779,0.41875 3.31201,0.15228 3.54042,-0.57103 3.08358,-0.53297 2.47449,-0.30455 1.97959,-0.34262 z"
         id="path1538"
         inkscape:connector-curvature="0" />
      <path
         style="fill:#ffe0bd;fill-opacity:1;stroke:none;stroke-width:0.132292px;stroke-linecap:butt;stroke-linejoin:miter;stroke-opacity:1"
         d="m 141.40397,232.45703 3.19779,0.41875 3.31201,0.15228 11.07808,-1.75117 0.41876,0.30455 0.0587,-0.41762 -0.33737,-0.5248 -0.63725,-0.67473 -1.31199,-0.37485 -1.79929,0.0375 h -0.97462 l -0.33737,-0.18743 -0.37485,-0.26239 -0.44983,-0.29989 -1.19952,-0.52479 h -1.7993 l -2.39906,0.18743 -2.36157,0.97461 -1.57439,0.7872 -1.49941,0.89964 -1.0121,0.48731 -0.59976,-0.075 -0.15903,0.46269 z"
         id="path1540"
         inkscape:connector-curvature="0" />
      <path
         style="fill:#ac1210;fill-opacity:1;stroke:none;stroke-width:0.132292px;stroke-linecap:butt;stroke-linejoin:miter;stroke-opacity:1"
         d="m 159.4693,231.16382 0.12979,-1.29086 0.16047,-1.44683 0.19756,-0.79025 -0.19756,-1.23477 -0.44452,-1.0866 0.0988,-0.93842 -0.0988,-2.27198 1.82746,-1.92624 0.69147,-1.28416 0.59269,-3.16101 -0.0494,-0.69147 0.74086,-0.59269 v -1.0372 l -0.0494,-1.33356 -0.49391,-1.77806 -1.53111,-2.12381 -1.18538,-1.28416 -0.44452,-1.08659 -0.98781,-0.14818 -0.83964,-0.29634 -0.93843,-0.0494 -0.69147,-0.19757 h -0.59269 l -0.79025,-0.29634 -1.03721,-0.5433 -2.22258,-0.29634 -1.87685,-0.14818 -0.5433,0.19757 -2.02502,0.0494 -2.12381,0.19756 -1.67928,0.0988 -1.43234,1.13599 -1.62989,1.87685 -0.74086,2.1238 -0.0494,1.87685 -0.0988,1.28416 -0.59269,1.0866 0.29635,2.27198 0.49391,2.32136 -0.69147,1.48173 -0.19757,0.74086 0.79025,1.62989 0.59269,0.69148 -0.29634,1.77806 -0.19756,1.23477 0.4939,1.48173 0.14818,1.18538 0.0988,1.08659 0.69147,0.64208 0.0575,1.31066 0.59976,0.075 1.0121,-0.48731 1.49941,-0.89964 1.57439,-0.7872 2.36157,-0.97461 2.39906,-0.18743 h 1.7993 l 1.19952,0.52479 0.82468,0.56228 0.33737,0.18743 2.77391,-0.0375 1.31199,0.37485 0.63725,0.67473 z"
         id="path1542"
         inkscape:connector-curvature="0" />
      <path
         style="fill:#0a0a08;fill-opacity:1;stroke:none;stroke-width:0.132292px;stroke-linecap:butt;stroke-linejoin:miter;stroke-opacity:1"
         d="m 159.41382,205.80516 0.87187,0.39537 1.0347,-0.12173 0.42605,0.24346 0.12173,-0.36519 0.73038,0.1826 0.36519,-0.48692 0.48692,0.0609 0.97384,-0.36519 0.42606,-0.24346 1.0347,0.0609 0.73038,0.54778 1.33903,1.64336 1.0347,1.15643 0.66952,0.97384 0.24346,0.73038 -1.58249,0.97384 -2.19114,1.39989 -1.27816,1.03471 -0.85211,0.60864 -0.88032,0.21384 -0.0494,-2.37076 -0.49391,-1.77806 -1.53111,-2.12381 -1.18538,-1.28416 z"
         id="path1544"
         inkscape:connector-curvature="0" />
      <path
         style="fill:#ffe0bd;fill-opacity:1;stroke:none;stroke-width:0.132292px;stroke-linecap:butt;stroke-linejoin:miter;stroke-opacity:1"
         d="m 169.90235,210.21762 2.0694,-1.76508 2.19114,-1.82595 1.76509,-1.58249 1.15643,-2.13027 -0.36519,-0.73038 -1.58249,-1.2173 -1.2173,-1.15644 -3.16497,-1.52162 -3.10412,-1.0347 -4.44314,-1.64336 -0.30432,-0.66951 -2.4346,-1.82595 -1.2173,-1.0347 -1.27816,-1.3999 -0.36519,-0.18259 v 0.85211 l 0.12173,0.18259 -0.36519,-0.0609 -0.48692,-0.79125 -0.48692,-0.73038 -0.48692,-0.42605 -0.60865,-0.1826 -0.66951,0.36519 -0.24346,0.60865 0.66951,1.27817 1.58249,0.30432 1.39989,1.03471 1.3999,1.46075 1.0347,1.2173 0.42605,1.52163 0.30433,0.73038 2.31287,1.21729 2.37373,1.3999 1.88681,1.76508 1.33903,1.88681 -1.2173,0.48692 -2.00854,0.54779 0.73038,0.54778 2.37373,2.79979 0.66952,0.97384 z"
         id="path1546"
         inkscape:connector-curvature="0" />
      <path
         style="fill:#0a0a08;fill-opacity:1;stroke:none;stroke-width:0.132292px;stroke-linecap:butt;stroke-linejoin:miter;stroke-opacity:1"
         d="m 155.0513,191.59295 1.58249,0.30432 1.39989,1.03471 2.4346,2.67805 0.42605,1.52163 0.30433,0.73038 0.30433,1.39989 -0.24347,1.76508 -0.66951,1.27817 -0.73038,0.97384 -0.91297,1.21729 -1.36029,0.86433 -0.93843,-0.0494 -0.69147,-0.19757 0.1904,-0.98256 0.73038,-0.97383 0.36519,-1.03471 0.60865,-0.97384 0.73038,-0.30432 0.30432,-0.73038 -0.30432,-0.73038 -0.1826,-0.30433 -0.48692,0.0609 -0.60865,-0.54779 -0.91297,0.12174 -0.24346,-0.97384 0.85211,-0.97384 0.30432,-0.1826 v -0.97384 l -0.24346,-0.85211 0.42606,-0.42605 -0.54779,-0.79125 -1.15643,-0.60864 -1.15643,-0.1826 -1.2173,0.30433 -0.73038,0.18259 -0.48692,0.12173 0.54778,-0.73038 0.60865,-0.66951 0.97384,-0.36519 z"
         id="path1548"
         inkscape:connector-curvature="0" />
      <path
         style="fill:#ffe0bd;fill-opacity:1;stroke:none;stroke-width:0.132292px;stroke-linecap:butt;stroke-linejoin:miter;stroke-opacity:1"
         d="m 155.95647,205.11368 0.1904,-0.98256 0.73038,-0.97383 0.36519,-1.03471 0.60865,-0.97384 0.73038,-0.30432 0.30432,-0.73038 -0.48692,-1.03471 -0.48692,0.0609 -0.60865,-0.54779 -0.91297,0.12174 -0.24346,-0.97384 0.85211,-0.97384 0.30432,-0.1826 v -0.97384 l -0.24346,-0.85211 0.42606,-0.42605 -0.54779,-0.79125 -1.15643,-0.60864 -1.15643,-0.1826 -2.4346,0.60865 -0.42606,0.54778 -1.15643,0.48692 -0.36519,1.33903 -1.0347,0.79125 -0.30433,0.60865 -0.30432,2.13027 -0.24346,0.60865 0.24346,1.58249 0.42605,1.09557 -0.13208,1.47845 0.5433,-0.19757 4.09943,0.44452 1.03721,0.5433 0.79025,0.29634 z"
         id="path1550"
         inkscape:connector-curvature="0" />
      <path
         style="fill:#0a0a08;fill-opacity:1;stroke:none;stroke-width:0.132292px;stroke-linecap:butt;stroke-linejoin:miter;stroke-opacity:1"
         d="m 143.06548,204.37282 -1.43234,1.13599 -1.62989,1.87685 -0.74086,2.1238 -0.14818,3.16101 -0.59269,1.0866 -0.87759,0.96455 -0.97384,0.97384 -0.97384,0.97384 -0.24346,-0.12173 0.48692,-0.54778 -0.42606,-0.97384 -0.8521,-0.85211 -1.09557,-1.15643 -1.58249,-0.54779 -1.2173,0.85211 0.12173,-0.60865 0.79124,-0.73038 1.03471,-1.58249 1.33903,-1.64335 0.97383,-1.58249 2.00855,-1.64335 1.88681,-0.66952 2.86065,-0.54778 z"
         id="path1552"
         inkscape:connector-curvature="0" />
      <path
         style="fill:#ffe0bd;fill-opacity:1;stroke:none;stroke-width:0.132292px;stroke-linecap:butt;stroke-linejoin:miter;stroke-opacity:1"
         d="m 125.77526,217.09536 1.94768,-1.09557 1.70422,-1.52162 1.33903,-1.15644 1.2173,-0.85211 1.58249,0.54779 1.94767,2.00854 0.42606,0.97384 -0.48692,0.54778 -1.76508,0.91298 -1.76509,1.88681 -1.39989,1.09557 -1.58249,1.2173 -2.252,1.2173 -2.49546,1.2173 -3.40844,1.09556 -2.73892,0.85211 -1.88682,0.60865 -0.0609,0.73038 -1.2173,1.58249 -0.66951,0.30433 0.18259,1.09556 v 0.73038 l -1.15643,0.73038 h -1.27817 l -0.85211,-1.2173 -0.24346,-1.09556 -0.54778,-1.33903 -0.0609,-0.79125 1.33903,-1.39989 1.15644,-0.73038 1.88681,-1.70422 2.13027,-1.27816 2.73893,-1.27817 2.13027,-1.76508 1.46076,-1.15643 z"
         id="path1554"
         inkscape:connector-curvature="0" />
    </g>
    <path
       inkscape:connector-curvature="0"
       id="path2651"
       d="m 288.81925,231.93464 -0.31792,-1.27169 -1.03324,-2.14596 -0.67558,-1.98701 0.0397,-1.62934 1.07298,-1.27169 1.35116,-0.51662 1.35117,0.0795 0.9935,1.31143 0.71532,1.23194 0.23844,0.91402 0.0397,1.11272 0.0397,1.27169 v 1.35116 l 0.67559,1.35116 1.35116,0.83455 1.11272,1.1922 0.55636,0.91402 0.23844,1.11272 0.27819,1.15247 0.0795,1.15246 -0.39741,0.75507 -0.7948,0.75505 -1.07298,0.35767 -1.39091,0.0397 -1.27168,-0.43713 -1.51012,-1.23194 -1.23195,-1.47039 -0.47688,-1.51012 -0.11922,-1.82805 0.1987,-1.07298 z"
       style="fill:#51524d;fill-opacity:1;stroke:none;stroke-width:0.107156px;stroke-linecap:butt;stroke-linejoin:miter;stroke-opacity:1" />
    <path
       inkscape:connector-curvature="0"
       id="path2653"
       d="m 296.33013,234.6767 -0.35766,-1.27168 -0.55636,-1.23194 -0.31792,-1.58961 -0.55636,-1.987 -0.0397,-0.87429 -0.31792,-1.82804 -0.63584,-1.23194 -1.07299,-0.83455 -0.87428,-0.47688 -0.51662,-0.67558 -0.51662,-0.55636 -0.67558,0.1987 -0.71533,0.0795 -0.15896,0.1987 0.23844,0.51662 1.35117,0.0795 0.9935,1.31143 0.71532,1.23194 0.23844,0.91402 0.0795,3.73557 0.67559,1.35116 1.35116,0.83455 1.11272,1.1922 z"
       style="fill:#4b948f;fill-opacity:1;stroke:none;stroke-width:0.107156px;stroke-linecap:butt;stroke-linejoin:miter;stroke-opacity:1" />
    <path
       inkscape:connector-curvature="0"
       id="path2655"
       d="m 293.90599,225.41726 0.51662,-1.74857 0.95376,-1.94726 1.43064,-2.50363 1.31143,-2.3844 1.54986,-1.58961 0.87428,-1.43064 0.51663,-1.27169 0.7948,-1.70882 0.23844,-1.82805 -0.47688,0.0795 -1.47039,-0.27818 -2.14596,-0.63584 -1.58961,-0.75506 -0.3974,0.95376 -0.47688,0.67558 -0.51662,-0.0397 0.11922,0.27818 v 0.99351 l -0.0795,1.35116 -0.9935,0.7948 -1.39091,1.31143 -1.43064,1.90752 -0.3974,1.39091 -0.0795,1.47038 -0.15896,1.3909 -0.0397,2.22545 1.03324,1.23194 0.87428,0.47688 1.07299,0.83455 z"
       style="fill:#e3ac9f;fill-opacity:1;stroke:none;stroke-width:0.107156px;stroke-linecap:butt;stroke-linejoin:miter;stroke-opacity:1" />
    <path
       inkscape:connector-curvature="0"
       id="path2665"
       d="m 295.01871,209.00459 -0.83454,-0.31792 -0.0397,-1.07298 -0.15896,-1.3909 0.0795,-2.06649 -0.35766,-1.31142 -0.11922,-1.78831 v -1.74856 -1.51013 l 0.0397,-2.66258 -0.15896,-2.86129 0.67558,1.54986 0.5961,1.58961 1.35116,1.23194 2.34467,0.87428 2.50363,0.31792 2.70232,-0.0795 2.30493,-0.51662 2.34467,-1.15246 2.14596,-1.51013 1.58961,-1.66908 0.9935,-1.07298 0.23844,-0.67558 0.23844,-0.15897 0.3974,0.63585 0.31792,0.47688 0.0795,0.83454 -0.11922,0.55636 v 0.9935 l 0.3974,1.27169 v 0.3974 l -0.27818,0.71532 -0.0795,0.67558 0.15896,1.23195 0.23844,1.31142 0.0397,1.07298 -0.0397,1.31143 0.3974,0.75506 0.67559,0.43714 0.1987,0.51662 -0.27818,0.55636 -0.59611,1.07298 -0.0397,0.39741 -0.5961,0.31792 -0.63584,0.5961 -1.1922,0.35766 -1.35117,0.0397 0.0397,0.31792 -0.5961,0.31792 -0.63584,0.43714 -2.10623,0.1987 -0.55636,-0.3974 -0.67558,0.0397 -0.87428,-0.55636 -0.15896,-0.0795 -0.11922,-1.27168 -0.3974,-1.62935 -0.5961,-1.86778 -0.67559,-1.70883 -0.43714,1.43065 -0.43714,1.03324 -0.11922,1.62934 -0.35766,1.51013 0.0795,1.31142 -0.0795,0.7948 -0.3974,-0.0397 -0.47688,0.0795 -1.47039,-0.27818 -2.14596,-0.63584 -1.58961,-0.75506 -0.3974,0.95376 -0.47688,0.67558 z"
       style="fill:#1e1c1f;fill-opacity:1;stroke:none;stroke-width:0.107156px;stroke-linecap:butt;stroke-linejoin:miter;stroke-opacity:1" />
    <path
       inkscape:connector-curvature="0"
       id="path2667"
       d="m 313.49786,191.00232 -0.23844,0.15897 -0.23844,0.67558 -2.58311,2.74206 -2.14596,1.51013 -2.34467,1.15246 -2.30493,0.51662 -2.70232,0.0795 -2.50363,-0.31792 -2.34467,-0.87428 -1.35116,-1.23194 -1.27168,-3.13947 -0.23949,-0.86328 0.30367,-0.65796 V 188.374 l 0.10123,-2.12572 -0.10123,-1.51836 0.10123,-1.41714 -0.20245,-2.48 -0.15184,-2.63184 0.20245,-3.44163 v -2.42938 l -0.0506,-1.92327 -0.65796,-1.77142 -0.45551,-1.51837 -0.55674,-1.36653 0.86041,-1.72082 1.16408,-1.51836 0.86041,-0.86041 1.11347,-0.35429 0.55673,-0.8604 0.75919,-0.45551 0.30367,-0.75919 0.4049,-0.40489 1.11347,0.70857 1.01224,0.55673 1.56898,0.30367 1.82204,-0.50612 1.51837,-0.75918 0.60734,0.4049 0.20245,0.50612 -0.30367,1.01224 0.96163,0.30368 0.80979,0.8604 0.8098,1.01225 0.4049,0.65796 1.36653,0.70857 1.36653,0.91102 0.80979,0.60734 1.26531,0.75919 -0.4049,1.21469 0.0506,1.72082 -0.25306,2.42938 -0.25306,2.48 -0.20245,2.58122 -0.15183,2.93551 0.40489,1.11347 0.0506,2.42939 -0.25306,1.06285 -0.15183,0.65796 0.65796,0.75918 0.40489,0.86041 -0.20244,0.86041 0.20244,0.45551 0.0506,0.50612 0.10122,0.55674 0.30367,0.20244 0.20245,0.60735 z"
       style="fill:#ae1913;fill-opacity:1;stroke:none;stroke-width:0.107156px;stroke-linecap:butt;stroke-linejoin:miter;stroke-opacity:1" />
    <path
       inkscape:connector-curvature="0"
       id="path2671"
       d="m 301.65017,225.78716 -0.88603,-1.77207 -0.63288,-3.29099 0.75945,-2.02522 1.26577,-0.69617 1.5822,0.31644 0.94933,0.82274 0.56959,1.6455 0.12658,1.96193 -0.37973,1.83536 0.0633,1.58221 0.75946,1.45563 0.75945,1.96193 -0.18986,1.77207 -0.63288,1.77207 -0.5696,1.39234 -0.5063,1.20247 -0.88604,0.50632 -1.39234,-0.44302 -0.88603,-0.82276 -0.69617,-1.07589 -0.69617,-1.70878 -0.18987,-2.02523 0.44302,-1.5822 0.94932,-1.32905 z"
       style="fill:#51524d;fill-opacity:1;stroke:none;stroke-width:0.107156px;stroke-linecap:butt;stroke-linejoin:miter;stroke-opacity:1" />
    <path
       inkscape:connector-curvature="0"
       id="path2673"
       d="m 304.0254,218.65956 0.17324,-0.0693 -0.34649,-0.86621 0.0693,-0.69298 0.41579,-0.20789 1.24735,0.38113 0.20789,0.48509 v 0.90086 0.24255 l 0.62368,0.34648 0.69297,0.79692 0.24255,0.83157 0.0346,1.07411 -0.27719,0.79692 -0.24254,1.21271 -0.17324,1.17806 -0.0693,1.3513 0.0346,0.76227 -0.0693,0.58903 v 0.72762 l -0.003,1.08465 -0.75946,-1.96193 -0.75946,-1.45563 -0.0633,-1.58221 0.37973,-1.83536 -0.12657,-1.96193 -0.5696,-1.6455 z"
       style="fill:#4b948f;fill-opacity:1;stroke:none;stroke-width:0.107156px;stroke-linecap:butt;stroke-linejoin:miter;stroke-opacity:1" />
    <path
       inkscape:connector-curvature="0"
       id="path2675"
       d="m 305.58459,217.20431 0.10395,-1.38594 0.20789,-1.66314 0.69297,-1.76709 0.1386,-0.65832 -0.24254,-0.90087 -0.34649,-1.83638 v -0.86622 l 0.52359,0.32188 0.67558,-0.0397 0.55636,0.3974 2.10623,-0.1987 0.63584,-0.43714 0.5961,-0.31792 -0.0397,-0.31792 1.35117,-0.0397 1.1922,-0.35766 0.63584,-0.5961 -0.26396,1.65494 -0.62368,2.35611 -0.45043,0.72762 -0.17325,1.38595 -0.48508,1.97498 -1.03946,2.14822 -1.62849,2.35611 -1.59384,1.62849 -0.83157,0.69298 0.0693,-0.65833 -0.24255,-0.83157 -0.69297,-0.79692 -0.62368,-0.34648 v -1.14341 z"
       style="fill:#e3ac9f;fill-opacity:1;stroke:none;stroke-width:0.107156px;stroke-linecap:butt;stroke-linejoin:miter;stroke-opacity:1" />
    <g
       id="g1062"
       transform="matrix(0.07921533,0.07921533,-0.07921494,0.07921494,249.9186,37.600934)">
      <g
         transform="matrix(0.20289452,0,0,0.2041448,788.03062,-17.509682)"
         id="g2903">
        <g
           transform="matrix(3.7795276,0,0,3.7795276,85.440331,22.667731)"
           inkscape:label="Layer 1"
           id="layer1-8">
          <path
             sodipodi:nodetypes="cc"
             inkscape:connector-curvature="0"
             id="path1418"
             d="M 93.04466,148.85145 C 61.863721,124.85829 67.191021,78.404684 81.52916,62.598959"
             style="fill:none;stroke:#000000;stroke-width:0.997741;stroke-linecap:butt;stroke-linejoin:miter;stroke-miterlimit:4;stroke-dasharray:none;stroke-opacity:1" />
          <path
             style="fill:none;stroke:#000000;stroke-width:1.00613;stroke-linecap:butt;stroke-linejoin:miter;stroke-miterlimit:4;stroke-dasharray:none;stroke-opacity:1"
             d="M 69.601337,164.28726 C 38.422755,139.88706 45.263772,94.442491 55.563175,78.368626"
             id="path1420"
             inkscape:connector-curvature="0"
             sodipodi:nodetypes="cc" />
          <ellipse
             style="fill:#ffffff;fill-opacity:0;stroke:#000000;stroke-width:1.00599;stroke-miterlimit:4;stroke-dasharray:none;stroke-opacity:1"
             id="path1410"
             cx="105.27128"
             cy="129.13179"
             rx="71.219254"
             ry="70.765961" />
          <path
             style="fill:none;stroke:#000000;stroke-width:1;stroke-linecap:butt;stroke-linejoin:miter;stroke-miterlimit:4;stroke-dasharray:none;stroke-opacity:1"
             d="M 105.45996,129.42813 C 83.870802,100.782 91.947182,74.041352 105.77953,58.162763"
             id="path1412"
             inkscape:connector-curvature="0"
             sodipodi:nodetypes="cc" />
          <path
             sodipodi:nodetypes="cc"
             inkscape:connector-curvature="0"
             id="path1414"
             d="m 105.45996,129.42813 c -14.0137,33.01982 -41.209966,39.3958 -61.877406,35.35593"
             style="fill:none;stroke:#000000;stroke-width:1;stroke-linecap:butt;stroke-linejoin:miter;stroke-miterlimit:4;stroke-dasharray:none;stroke-dashoffset:10;stroke-opacity:1" />
          <path
             sodipodi:nodetypes="cc"
             inkscape:connector-curvature="0"
             id="path1416"
             d="m 105.45996,129.42813 c 35.60285,-4.37369 54.72274,15.99098 61.55783,35.90944"
             style="fill:none;stroke:#000000;stroke-width:1;stroke-linecap:butt;stroke-linejoin:miter;stroke-miterlimit:4;stroke-dasharray:none;stroke-opacity:1" />
          <g
             id="g1430"
             transform="rotate(120,105.4939,129.17901)">
            <path
               sodipodi:nodetypes="cc"
               inkscape:connector-curvature="0"
               id="path1426"
               d="M 93.572954,148.85053 C 62.394372,124.74676 67.721269,78.079004 82.058324,62.200415"
               style="fill:none;stroke:#000000;stroke-width:1;stroke-linecap:butt;stroke-linejoin:miter;stroke-miterlimit:4;stroke-dasharray:none;stroke-opacity:1" />
            <path
               style="fill:none;stroke:#000000;stroke-width:1;stroke-linecap:butt;stroke-linejoin:miter;stroke-miterlimit:4;stroke-dasharray:none;stroke-opacity:1"
               d="M 70.130504,163.24346 C 38.951922,139.13969 45.792939,94.247215 56.092342,78.368626"
               id="path1428"
               inkscape:connector-curvature="0"
               sodipodi:nodetypes="cc" />
          </g>
          <g
             transform="rotate(-120,105.24642,129.22766)"
             id="g1436">
            <path
               style="fill:none;stroke:#000000;stroke-width:1;stroke-linecap:butt;stroke-linejoin:miter;stroke-miterlimit:4;stroke-dasharray:none;stroke-opacity:1"
               d="M 93.572954,148.85053 C 62.394372,124.74676 67.721269,78.079004 82.058324,62.200415"
               id="path1432"
               inkscape:connector-curvature="0"
               sodipodi:nodetypes="cc" />
            <path
               sodipodi:nodetypes="cc"
               inkscape:connector-curvature="0"
               id="path1434"
               d="M 70.130504,163.24346 C 38.951922,139.13969 45.792939,94.247215 56.092342,78.368626"
               style="fill:none;stroke:#000000;stroke-width:1;stroke-linecap:butt;stroke-linejoin:miter;stroke-miterlimit:4;stroke-dasharray:none;stroke-opacity:1" />
          </g>
          <path
             style="fill:#ffffff;fill-opacity:0;stroke:none;stroke-width:3.73039;stroke-miterlimit:4;stroke-dasharray:none;stroke-dashoffset:37.7953;stroke-opacity:1"
             d="M 344.17014,551.37308 C 280.62265,495.81605 254.41596,398.14416 278.25218,305.69806 283.88634,283.8466 294.61701,259.64279 304.8191,245.7744 l 4.75097,-6.45831 10.76567,-3.3112 c 19.41214,-5.97058 39.4707,-9.38414 66.27128,-11.278 l 6.1536,-0.43484 -4.29065,5.58049 c -19.1145,24.86065 -32.63273,54.76865 -39.23212,86.79796 -2.91299,14.13785 -3.66159,47.03578 -1.41985,62.39686 4.78668,32.79978 18.00271,66.00215 38.47588,96.66221 l 9.51164,14.24436 -6.87118,13.88628 c -9.37284,18.94201 -21.40375,37.60536 -33.35255,51.73923 l -2.79535,3.30654 z"
             id="path1438"
             inkscape:connector-curvature="0"
             transform="scale(0.26458333)" />
          <path
             style="fill:#024fa1;fill-opacity:0;stroke:none;stroke-width:3.68205;stroke-miterlimit:4;stroke-dasharray:none;stroke-dashoffset:37.7953;stroke-opacity:1"
             d="M 344.17014,551.37308 C 280.62265,495.81605 254.41596,398.14416 278.25218,305.69806 283.88634,283.8466 294.61701,259.64279 304.8191,245.7744 l 4.75097,-6.45831 10.76567,-3.3112 c 19.41214,-5.97058 39.4707,-9.38414 66.27128,-11.278 l 6.1536,-0.43484 -4.29065,5.58049 c -19.1145,24.86065 -32.63273,54.76865 -39.23212,86.79796 -2.91299,14.13785 -3.66159,47.03578 -1.41985,62.39686 4.78668,32.79978 18.00271,66.00215 38.47588,96.66221 l 9.51164,14.24436 -6.87118,13.88628 c -9.37284,18.94201 -21.40375,37.60536 -33.35255,51.73923 l -2.79535,3.30654 z"
             id="path1440"
             inkscape:connector-curvature="0"
             transform="scale(0.26458333)" />
          <path
             style="fill:#024fa1;fill-opacity:0;stroke:none;stroke-width:3.68205;stroke-miterlimit:4;stroke-dasharray:none;stroke-dashoffset:37.7953;stroke-opacity:1"
             d="M 344.17014,551.37308 C 280.62265,495.81605 254.41596,398.14416 278.25218,305.69806 283.88634,283.8466 294.61701,259.64279 304.8191,245.7744 l 4.75097,-6.45831 10.76567,-3.3112 c 19.41214,-5.97058 39.4707,-9.38414 66.27128,-11.278 l 6.1536,-0.43484 -4.29065,5.58049 c -19.1145,24.86065 -32.63273,54.76865 -39.23212,86.79796 -2.91299,14.13785 -3.66159,47.03578 -1.41985,62.39686 4.78668,32.79978 18.00271,66.00215 38.47588,96.66221 l 9.51164,14.24436 -6.87118,13.88628 c -9.37284,18.94201 -21.40375,37.60536 -33.35255,51.73923 l -2.79535,3.30654 z"
             id="path1442"
             inkscape:connector-curvature="0"
             transform="scale(0.26458333)" />
          <path
             style="fill:#024fa1;fill-opacity:0;stroke:none;stroke-width:3.68205;stroke-miterlimit:4;stroke-dasharray:none;stroke-dashoffset:37.7953;stroke-opacity:1"
             d="M 344.17014,551.37308 C 280.62265,495.81605 254.41596,398.14416 278.25218,305.69806 283.88634,283.8466 294.61701,259.64279 304.8191,245.7744 l 4.75097,-6.45831 10.76567,-3.3112 c 19.41214,-5.97058 39.4707,-9.38414 66.27128,-11.278 l 6.1536,-0.43484 -4.29065,5.58049 c -19.1145,24.86065 -32.63273,54.76865 -39.23212,86.79796 -2.91299,14.13785 -3.66159,47.03578 -1.41985,62.39686 4.78668,32.79978 18.00271,66.00215 38.47588,96.66221 l 9.51164,14.24436 -6.87118,13.88628 c -9.37284,18.94201 -21.40375,37.60536 -33.35255,51.73923 l -2.79535,3.30654 z"
             id="path1444"
             inkscape:connector-curvature="0"
             transform="scale(0.26458333)" />
          <path
             style="fill:#024fa1;fill-opacity:0;stroke:none;stroke-width:3.68205;stroke-miterlimit:4;stroke-dasharray:none;stroke-dashoffset:37.7953;stroke-opacity:1"
             d="M 344.17014,551.37308 C 280.62265,495.81605 254.41596,398.14416 278.25218,305.69806 283.88634,283.8466 294.61701,259.64279 304.8191,245.7744 l 4.75097,-6.45831 10.76567,-3.3112 c 19.41214,-5.97058 39.4707,-9.38414 66.27128,-11.278 l 6.1536,-0.43484 -4.29065,5.58049 c -19.1145,24.86065 -32.63273,54.76865 -39.23212,86.79796 -2.91299,14.13785 -3.66159,47.03578 -1.41985,62.39686 4.78668,32.79978 18.00271,66.00215 38.47588,96.66221 l 9.51164,14.24436 -6.87118,13.88628 c -9.37284,18.94201 -21.40375,37.60536 -33.35255,51.73923 l -2.79535,3.30654 z"
             id="path1446"
             inkscape:connector-curvature="0"
             transform="scale(0.26458333)" />
          <path
             style="fill:#024fa1;fill-opacity:0;stroke:none;stroke-width:3.68205;stroke-miterlimit:4;stroke-dasharray:none;stroke-dashoffset:37.7953;stroke-opacity:1"
             d="M 628.71089,611.24912 C 601.27671,543.912 543.91735,498.50902 472.24816,487.40057 c -13.07997,-2.02734 -45.0824,-2.88535 -64.63359,-1.73287 l -8.3723,0.49352 -8.42749,-12.52094 c -4.63512,-6.88652 -11.1629,-17.76864 -14.50617,-24.18249 -6.28951,-12.06598 -15.10246,-32.62944 -15.10246,-35.2389 0,-1.03197 3.70483,-2.68624 12.09124,-5.39893 24.26618,-7.8492 43.62892,-10.49844 71.23588,-9.74659 37.23019,1.01392 68.23517,9.2482 105.28135,27.96053 41.07365,20.74664 78.70935,54.23013 99.11499,88.18001 5.23336,8.70699 10.3376,20.67286 10.34317,24.24748 0.0175,11.21754 -15.12667,54.47278 -25.30648,72.28125 l -2.95104,5.16254 z"
             id="path1448"
             inkscape:connector-curvature="0"
             transform="scale(0.26458333)" />
          <path
             style="fill:#024fa1;fill-opacity:0;stroke:none;stroke-width:3.68205;stroke-miterlimit:4;stroke-dasharray:none;stroke-dashoffset:37.7953;stroke-opacity:1"
             d="M 657.99395,521.44681 C 629.98514,466.71734 563.61824,417.80472 494.28618,400.79368 c -22.08765,-5.41934 -30.82018,-6.40284 -56.58442,-6.37281 -18.01042,0.021 -26.04486,0.44014 -33.51698,1.74853 -12.66203,2.21716 -26.90707,5.84029 -36.98793,9.40762 l -7.98939,2.82722 -1.45293,-5.0448 c -5.54849,-19.26509 -8.18093,-45.23634 -6.49098,-64.03881 0.59681,-6.64008 1.7867,-15.93223 2.6442,-20.64923 l 1.5591,-8.57635 8.54513,-3.09724 c 35.86977,-13.00125 75.63367,-15.6956 114.61118,-7.76592 60.69326,12.34758 126.47282,53.64922 163.29289,102.52827 13.45216,17.8579 15.49505,22.65824 19.53648,45.90649 1.97297,11.34943 2.22597,16.08072 2.19039,40.96217 -0.0221,15.47185 -0.47808,30.79565 -1.01321,34.05288 l -0.97298,5.92224 z"
             id="path1450"
             inkscape:connector-curvature="0"
             transform="scale(0.26458333)" />
          <path
             style="fill:#024fa1;fill-opacity:1;stroke:#014fa2;stroke-width:2.26772;stroke-miterlimit:4;stroke-dasharray:none;stroke-dashoffset:37.7953;stroke-opacity:1"
             d="m 230.12006,689.91348 c -5.92752,-0.76956 -6.60884,-1.15335 -14.23391,-8.01792 -8.45334,-7.61025 -21.63067,-21.95475 -29.17498,-31.75914 -6.52708,-8.48244 -16.05601,-22.61172 -15.57438,-23.09334 0.227,-0.22701 5.34509,0.13193 11.37352,0.79765 17.22458,1.90209 48.77027,0.72217 63.98681,-2.39332 15.47517,-3.16845 26.40773,-6.51663 39.4049,-12.06806 45.46259,-19.41825 81.95209,-55.70217 106.65091,-106.05004 l 7.6413,-15.5766 4.44168,-0.82166 c 8.1923,-1.5155 54.77107,-0.91125 65.46221,0.84921 5.33193,0.87798 9.96042,1.86233 10.28552,2.18742 0.3251,0.3251 -0.40454,5.33611 -1.62144,11.13558 -13.60674,64.8472 -59.83452,122.27962 -126.43941,157.0857 -41.82012,21.85416 -87.53423,32.22547 -122.20273,27.72452 z"
             id="path1458"
             inkscape:connector-curvature="0"
             transform="scale(0.26458333)" />
          <path
             transform="scale(0.26458333)"
             style="fill:#024fa1;fill-opacity:1;stroke:#014fa2;stroke-width:2.26772;stroke-miterlimit:4;stroke-dasharray:none;stroke-dashoffset:37.7953;stroke-opacity:1"
             d="m 374.16778,752.08988 c -9.22505,-0.88982 -29.98084,-3.97049 -29.53519,-4.38376 0.15807,-0.14659 5.18144,-0.97943 11.16304,-1.85077 14.57059,-2.1225 34.74555,-7.29896 49.9597,-12.81856 78.32509,-28.4159 136.63578,-82.23163 161.08234,-148.66508 2.82635,-7.68058 7.86177,-26.62063 10.2342,-38.49456 0.4656,-2.3303 0.84741,-2.08314 6.86156,4.44168 17.36343,18.83776 33.87638,45.32368 42.26413,67.78945 l 1.72449,4.61888 -5.67171,8.70616 c -14.26197,21.89232 -37.39398,47.52624 -56.72688,62.86234 -48.54132,38.50609 -108.72426,59.32277 -169.77091,58.72205 -7.32877,-0.0722 -17.04192,-0.48965 -21.58477,-0.92783 z"
             id="path1460"
             inkscape:connector-curvature="0" />
          <path
             style="fill:#feda00;fill-opacity:1;stroke:#ffdb00;stroke-width:1.13386;stroke-miterlimit:4;stroke-dasharray:none;stroke-dashoffset:37.7953;stroke-opacity:1"
             d="m 310.8671,738.54241 c -16.97502,-6.0912 -25.57731,-9.80783 -38.49457,-16.63161 -9.99876,-5.28205 -31.90313,-19.33074 -38.00104,-24.37255 l -2.96112,-2.44827 9.92142,0.54137 c 17.1165,0.934 43.4687,-2.77607 64.5617,-9.08948 31.20848,-9.34113 65.31733,-26.89292 90.8461,-46.74777 35.7818,-27.82907 62.8391,-63.46044 77.65785,-102.26646 3.39875,-8.90033 9.47439,-30.90698 10.68201,-38.69133 l 0.63675,-4.10459 8.78458,2.3509 c 25.8882,6.92814 51.61581,20.0659 71.26944,36.39362 7.68925,6.38802 7.6339,6.1471 4.66257,20.29723 -10.26884,48.9024 -38.35453,93.16064 -80.60051,127.01262 -44.36767,35.5521 -104.90987,59.97344 -153.79566,62.03764 l -11.84448,0.50014 z"
             id="path1462"
             inkscape:connector-curvature="0"
             transform="scale(0.26458333)" />
          <path
             style="fill:#feda00;fill-opacity:1;stroke:#ffdb00;stroke-width:1.13386;stroke-miterlimit:4;stroke-dasharray:none;stroke-dashoffset:37.7953;stroke-opacity:1"
             d="M 657.99395,521.44681 C 629.98514,466.71734 563.61824,417.80472 494.28618,400.79368 c -22.08765,-5.41934 -30.82018,-6.40284 -56.58442,-6.37281 -18.01042,0.021 -26.04486,0.44014 -33.51698,1.74853 -12.66203,2.21716 -26.90707,5.84029 -36.98793,9.40762 l -7.98939,2.82722 -1.45293,-5.0448 c -5.54849,-19.26509 -8.18093,-45.23634 -6.49098,-64.03881 0.59681,-6.64008 1.7867,-15.93223 2.6442,-20.64923 l 1.5591,-8.57635 8.54513,-3.09724 c 35.86977,-13.00125 75.63367,-15.6956 114.61118,-7.76592 60.69326,12.34758 126.47282,53.64922 163.29289,102.52827 13.45216,17.8579 15.49505,22.65824 19.53648,45.90649 1.97297,11.34943 2.22597,16.08072 2.19039,40.96217 -0.0221,15.47185 -0.47808,30.79565 -1.01321,34.05288 l -0.97298,5.92224 z"
             id="path1464"
             inkscape:connector-curvature="0"
             transform="scale(0.26458333)" />
          <path
             transform="scale(0.26458333)"
             style="fill:#024ea2;fill-opacity:1;stroke:#014fa2;stroke-width:2.26772;stroke-miterlimit:4;stroke-dasharray:none;stroke-dashoffset:37.7953;stroke-opacity:1"
             d="M 628.71089,611.24912 C 601.27671,543.912 543.91735,498.50902 472.24816,487.40057 c -13.07997,-2.02734 -45.0824,-2.88535 -64.63359,-1.73287 l -8.3723,0.49352 -8.42749,-12.52094 c -4.63512,-6.88652 -11.1629,-17.76864 -14.50617,-24.18249 -6.28951,-12.06598 -15.10246,-32.62944 -15.10246,-35.2389 0,-1.03197 3.70483,-2.68624 12.09124,-5.39893 24.26618,-7.8492 43.62892,-10.49844 71.23588,-9.74659 37.23019,1.01392 68.23517,9.2482 105.28135,27.96053 41.07365,20.74664 78.70935,54.23013 99.11499,88.18001 5.23336,8.70699 10.3376,20.67286 10.34317,24.24748 0.0175,11.21754 -15.12667,54.47278 -25.30648,72.28125 l -2.95104,5.16254 z"
             id="path1474"
             inkscape:connector-curvature="0" />
          <path
             transform="scale(0.26458333)"
             inkscape:connector-curvature="0"
             id="path869"
             d="m 256.36865,612.30543 c -35.20526,-29.80524 -61.00382,-75.1649 -71.10503,-125.01857 -4.15857,-20.52431 -5.18988,-31.7561 -5.20002,-56.63249 -0.0101,-24.76473 0.90492,-36.00503 4.54434,-55.82335 5.01922,-27.33194 15.08712,-57.11342 24.50224,-72.47907 5.47763,-8.9396 29.34886,-28.27319 50.9975,-41.30347 11.32226,-6.81484 37.73889,-19.74088 40.34397,-19.74088 0.30098,0 -1.29168,2.66956 -3.53925,5.93235 -27.40796,39.78809 -39.90985,106.70881 -31.23487,167.19548 8.42076,58.71411 36.05285,110.10119 77.64893,144.40281 2.69687,2.22394 4.99998,4.28541 5.11802,4.58104 0.31551,0.79018 -12.52522,12.82224 -20.48183,19.19193 -18.14952,14.52965 -41.42537,26.89694 -62.54157,33.23057 l -3.59996,1.07978 z"
             style="fill:#ffdb00;stroke:#ffdb00;stroke-width:2.85116;stroke-dashoffset:37.7953;stroke-opacity:1" />
          <path
             transform="scale(0.26458333)"
             inkscape:connector-curvature="0"
             id="path871"
             d="m 649.08669,403.17937 c -0.90497,-1.38609 -4.34036,-5.87038 -7.63419,-9.96508 -29.95239,-37.23504 -78.02068,-71.11905 -125.09977,-88.18459 -28.37398,-10.28519 -53.04208,-14.71894 -81.91257,-14.72264 -25.94858,-0.003 -46.03605,3.2501 -69.02925,11.1802 l -8.46752,2.92035 0.46585,-1.941 c 1.78328,-7.4301 8.17078,-23.65569 13.83086,-35.13326 6.96289,-14.11942 15.13169,-27.17509 23.78974,-38.02165 l 5.05929,-6.33812 12.16603,0.47786 c 47.65038,1.87163 98.08902,19.1667 138.87408,47.61898 44.11616,30.77612 80.49431,77.97449 97.65618,126.70279 2.65068,7.52617 2.74076,9.1426 0.30127,5.40616 z"
             style="fill:#014fa2;fill-opacity:1;stroke:#014fa2;stroke-width:2.85116;stroke-dashoffset:37.7953;stroke-opacity:1" />
        </g>
        <path
           inkscape:connector-curvature="0"
           id="path2870"
           d="m 424.4406,569.94577 c -28.35308,-25.91311 -52.30008,-67.13479 -62.88461,-108.24776 -15.87448,-61.66043 -5.75664,-140.39968 23.82211,-185.38896 8.24853,-12.54603 11.18755,-15.22006 19.85249,-18.06256 13.72429,-4.50222 38.18092,-9.33539 56.81562,-11.22803 12.53048,-1.27267 14.97813,-1.00971 13.42286,1.44202 -1.04616,1.64918 -5.5396,8.53544 -9.98542,15.3028 -18.75745,28.55231 -29.20494,56.7673 -33.21186,89.69357 -5.32662,43.7707 5.96852,91.89786 31.19953,132.93725 18.42935,29.97616 17.30763,25.69313 10.41734,39.7764 -5.91951,12.09903 -23.59406,39.77568 -32.20729,50.43351 l -4.22942,5.23341 z"
           style="fill:#000000;fill-opacity:0;stroke:none;stroke-width:8.45535;stroke-dashoffset:37.7953" />
        <path
           inkscape:connector-curvature="0"
           id="path2872"
           d="m 261.3857,644.67263 c -8.4339,-0.87287 -8.79006,-1.28967 -18.31809,-21.43609 -40.71356,-86.08636 -32.5649,-183.74556 21.92564,-262.77202 6.17192,-8.951 11.68558,-15.81063 12.25258,-15.24363 0.56701,0.567 -1.03735,7.38719 -3.56524,15.15597 -12.57748,38.65347 -17.00249,94.15311 -10.75809,134.93085 8.14285,53.17518 29.48776,98.07121 62.75824,132.00316 l 13.8485,14.12385 -16.40614,2.4401 c -15.69576,2.33446 -43.42721,2.69283 -61.7374,0.79781 z"
           style="fill:#000000;fill-opacity:0;stroke:none;stroke-width:8.45535;stroke-dashoffset:37.7953" />
      </g>
      <path
         inkscape:connector-curvature="0"
         id="path1029"
         d="m 841.26731,113.77629 c -1.09722,-0.21571 -2.52777,-1.53866 -3.17899,-2.93987 -7.39633,-15.914595 -7.34171,-32.848332 0.15506,-48.076431 3.29739,-6.697961 5.19363,-8.708105 4.16473,-4.41491 -0.36073,1.505189 -0.90189,7.306933 -1.20257,12.892767 -0.87699,16.291754 1.98957,26.486026 10.32548,36.720284 l 4.31858,5.30205 -3.46124,0.57234 c -3.67852,0.60828 -7.84831,0.5872 -11.12105,-0.0562 z"
         style="fill:#000000;fill-opacity:0;stroke-width:3.5684;stroke-dashoffset:37.7953" />
    </g>
    <path
       inkscape:connector-curvature="0"
       id="path2677"
       d="m 313.11996,166.86381 0.91892,-1.39004 1.59384,-1.90568 1.00481,-1.21271 0.65833,-1.282 0.62368,-0.51973 0.13859,-1.10876 -0.38113,-1.73244 -0.76228,-1.66314 -1.00481,-1.282 -0.72762,-0.58903 -1.00482,0.76227 -0.17324,0.27719 -0.62368,0.0693 -0.20789,0.24254 -0.17324,0.45043 -0.72763,0.0693 -0.27719,0.1386 -0.31183,0.17324 -0.38114,-0.13859 -0.31184,0.41578 -0.55438,0.0346 -0.17324,0.24254 -0.31184,0.13859 -0.13859,-0.13859 h -0.2079 l -0.31184,0.38114 -0.79692,0.24254 -0.0693,0.45043 -0.34649,0.20789 -0.65833,-0.13859 -0.41578,0.34649 v 0.58902 l -0.48508,0.27719 -0.45044,-0.62367 -0.27719,-0.2079 -0.34648,0.31184 -0.0693,-0.38113 -0.83157,-0.0346 -1.10876,0.38113 -1.10876,0.51973 -1.31665,-0.0693 -1.21271,-0.27719 -1.17805,-0.58903 -0.51973,-0.24254 -0.1386,0.0346 -0.83157,0.0693 -1.00481,-0.72762 -0.27719,-0.20789 -0.38114,-0.17325 -0.27719,-0.48508 -0.41578,-0.10394 -0.34649,-0.58903 -0.51973,-0.72763 -0.58903,-0.34648 -0.83157,-0.27719 -1.24735,0.0693 -1.14341,0.48509 -0.90087,1.03946 -0.48508,1.2127 -0.0346,1.14341 0.51973,1.31665 0.65833,1.45525 0.58903,1.55919 0.55438,1.31665 0.76412,1.62788 0.86041,-1.72082 1.16408,-1.51836 0.86041,-0.86041 1.11347,-0.35429 0.55673,-0.8604 0.75919,-0.45551 0.30367,-0.75919 0.4049,-0.40489 1.11347,0.70857 1.01224,0.55673 1.56898,0.30367 1.82204,-0.50612 1.51837,-0.75918 0.60734,0.4049 0.20245,0.50612 -0.30367,1.01224 0.96163,0.30368 0.80979,0.8604 0.8098,1.01225 0.4049,0.65796 1.36653,0.70857 z"
       style="fill:#1e1c1f;fill-opacity:1;stroke:none;stroke-width:0.107156px;stroke-linecap:butt;stroke-linejoin:miter;stroke-opacity:1" />
    <path
       inkscape:connector-curvature="0"
       id="path2697"
       d="m 298.10047,158.05894 0.20789,-0.27719 v -0.31184 l 0.69297,0.38114 1.10876,0.17324 1.10876,-0.20789 1.4206,-0.45044 1.00481,-0.65832 0.58903,-0.41579 -0.0346,-0.58903 0.1386,-1.3513 0.20789,-0.55438 -0.10395,-0.41578 0.0693,-0.55438 0.45043,-0.69297 0.2079,-0.38114 0.0346,-0.20789 0.31184,0.24254 0.20789,-0.20789 0.0346,-0.51973 -0.20789,-0.55439 0.10395,-1.282 0.38113,-0.38113 -0.0346,-0.86622 -0.27719,-0.69298 0.2079,-0.65832 -0.1386,-0.93552 -0.48508,-1.03946 -1.17806,-0.83157 -0.93551,-0.38113 h -0.79692 l -0.51973,-0.38114 -0.79692,-0.10395 -0.27719,0.0346 -0.1386,-0.79692 -0.45043,-0.48508 -0.62368,-0.10395 -0.34649,0.10395 -0.83157,-0.0693 -1.10876,0.20789 -0.79692,0.51973 -0.24254,0.58903 -0.62367,0.38114 -0.62368,0.58903 -0.90087,0.86622 -0.90087,1.3513 -0.27719,1.38594 -0.41578,1.62849 0.38114,1.5592 0.58902,1.24735 1.00482,1.4206 0.31184,0.31184 0.45043,0.48508 0.69297,1.17806 0.51974,0.97016 0.41578,0.17325 0.34649,0.45043 1.10876,0.55438 -0.0693,0.10394 z"
       style="fill:#1e1c1f;fill-opacity:1;stroke:none;stroke-width:0.107156px;stroke-linecap:butt;stroke-linejoin:miter;stroke-opacity:1" />
    <path
       inkscape:connector-curvature="0"
       id="path2699"
       d="m 297.96187,158.09359 0.34649,-0.62368 0.69297,0.38114 1.10876,0.17324 1.10876,-0.20789 1.4206,-0.45044 1.59384,-1.07411 -0.0346,-0.58903 0.1386,-1.3513 0.20789,-0.55438 -0.10395,-0.41578 0.0693,-0.55438 0.45043,-0.69297 0.2079,-0.38114 0.0346,-0.20789 0.31184,0.24254 0.20789,-0.20789 0.0346,-0.51973 -0.20789,-0.55439 0.0346,-0.34648 0.31184,0.38113 0.17324,1.07411 -0.0346,1.62849 -0.24254,1.10876 -0.48508,0.90087 -0.20789,0.93552 -0.10395,0.93551 0.38114,1.24736 -0.83157,-0.0346 -1.10876,0.38113 -1.10876,0.51973 -1.31665,-0.0693 -1.21271,-0.27719 z"
       style="fill:#e3ac9f;fill-opacity:1;stroke:none;stroke-width:0.107156px;stroke-linecap:butt;stroke-linejoin:miter;stroke-opacity:1" />
    <path
       inkscape:connector-curvature="0"
       id="path2701"
       d="m 315.18229,154.17828 1.44062,-1.10679 1.33076,-1.0456 0.50696,-0.22179 -0.44359,-1.77434 -0.8238,-2.56646 -0.53864,-1.39413 -1.07728,-1.8694 -0.8238,-1.39413 -0.4119,-0.44358 h -1.0456 l -0.72875,0.19011 -0.76043,0.0951 -0.72875,0.19011 -0.69706,0.31684 -0.34853,0.28517 -0.88718,0.12674 -0.72874,0.0634 v -0.15843 l 0.57032,-0.38021 0.63369,-0.44359 -0.85548,-0.0634 -0.76044,-0.0317 -0.79211,-0.44359 -0.12674,-0.31685 0.28516,-0.28516 0.69706,-0.0317 0.6337,0.0951 0.85548,-0.0634 0.25348,-0.12674 -0.53864,-0.25348 -1.07728,-0.38021 -0.72875,-0.50696 -0.095,-0.38021 0.44359,-0.47528 0.47527,0.0634 0.91885,0.44359 0.85549,0.19011 0.57032,-0.0317 0.38022,-0.25347 -0.53864,-0.41191 -0.66538,-0.50695 -0.72875,-0.53864 -0.63369,-0.53864 -0.0317,-0.34853 0.31684,-0.25348 0.60201,0.0317 0.6337,0.50695 0.72874,0.50696 0.76044,0.53864 0.38021,-0.12674 0.0951,-0.4119 -0.28517,-0.6337 -0.53864,-0.79212 -0.38021,-0.95054 0.0951,-0.44358 0.34853,-0.0951 0.41191,0.28516 0.44358,0.69707 0.38022,0.66538 0.44358,0.60201 0.34854,0.22179 0.8238,0.15842 0.79212,0.19011 0.60201,0.44359 0.79211,0.95054 0.72875,0.63369 0.69707,0.72875 0.8238,1.2357 0.91885,1.26739 0.95054,1.36245 0.91886,1.39412 0.76043,1.33076 0.60202,1.55255 0.53864,1.36244 0.53863,0.98223 0.0951,1.14065 -0.69706,0.88717 -1.17234,1.64761 -1.2357,1.58423 -1.29908,1.61592 -1.01391,1.01391 -0.30744,0.1632 -0.38113,-1.73244 -0.76228,-1.66314 -1.00481,-1.282 z"
       style="fill:#e3ac9f;fill-opacity:1;stroke:none;stroke-width:0.107156px;stroke-linecap:butt;stroke-linejoin:miter;stroke-opacity:1" />
    <path
       inkscape:connector-curvature="0"
       id="path2703"
       d="m 291.71873,151.04367 0.91886,1.83771 0.6337,1.36244 0.0476,0.55814 -0.83157,-0.27719 -1.24735,0.0693 -1.14341,0.48509 -0.90087,1.03946 -0.48508,1.2127 -0.3505,-1.53494 -0.31685,-1.39412 -0.28516,-1.33076 -0.19011,-1.58424 v -0.88717 l 0.15842,-1.36244 0.88717,-1.74266 0.91886,-1.6476 1.14065,-1.67929 1.17233,-1.33076 0.98223,-1.07728 0.88717,-0.98223 0.69707,-1.04559 0.76043,-1.0456 0.53864,-0.63369 0.47527,-1.01391 0.69706,-0.76044 1.0456,-0.63369 0.79212,-0.47527 0.44358,-0.0317 0.0951,0.12674 0.50695,-0.44358 0.47527,-0.50696 0.47527,-0.0951 0.19011,0.19011 -0.31685,0.63369 -0.15842,0.44359 -0.66538,0.76043 -0.69706,0.88717 0.44358,-0.28516 0.6337,-0.34853 0.19011,0.38021 0.0317,0.6337 -0.19011,0.34853 -0.34853,0.12674 -0.38022,0.19011 -0.095,0.15842 0.22179,0.38022 0.4119,0.1901 0.15843,0.44359 0.31684,0.4119 0.12674,0.72875 -0.0634,0.22179 -1.10896,-0.095 -0.85549,0.15842 -0.72875,0.0317 -0.66538,0.72875 -0.4119,0.44358 -0.24998,0.38122 -0.24254,0.58903 -0.62367,0.38114 -1.52455,1.45525 -0.90087,1.3513 -0.69297,3.01443 -0.42307,1.06565 z"
       style="fill:#e3ac9f;fill-opacity:1;stroke:none;stroke-width:0.107156px;stroke-linecap:butt;stroke-linejoin:miter;stroke-opacity:1" />
    <path
       style="fill:#000000;fill-opacity:0;stroke-width:0.382376;stroke-dashoffset:37.7953"
       d="m 318.64881,117.3301 c -0.71529,-0.7647 -1.09374,-1.66569 -1.24446,-2.96271 -0.15432,-1.3281 0.43645,-3.20092 1.09675,-3.47681 0.42194,-0.17629 1.42946,-0.31893 1.36992,-0.19393 -0.0238,0.0499 -0.19018,0.39108 -0.36981,0.75823 -0.68842,1.40701 -0.6473,2.68805 0.13507,4.20851 l 0.43185,0.83927 -0.37973,0.62802 c -0.20886,0.34541 -0.42415,0.64282 -0.47844,0.66091 -0.0543,0.0181 -0.3068,-0.18957 -0.56115,-0.46149 z"
       id="path1027"
       inkscape:connector-curvature="0" />
    <rect
       style="fill:#000000;fill-opacity:0;stroke-width:0.405;stroke-dashoffset:37.7953"
       id="rect1146"
       width="65.885918"
       height="107.35528"
       x="325.10056"
       y="145.80287" />
    <rect
       style="fill:#5ab474;fill-opacity:1;stroke:none;stroke-width:2.06299;stroke-dashoffset:37.7953"
       id="rect4613"
       width="53.473408"
       height="2.8425674"
       x="365.69638"
       y="-453.14658"
       transform="matrix(0.16810745,0.98576868,-0.95476523,0.29736064,0,0)" />
  </g>
</svg>
