<?xml version="1.0" encoding="UTF-8" standalone="no"?>
<svg
   xmlns:osb="http://www.openswatchbook.org/uri/2009/osb"
   xmlns:dc="http://purl.org/dc/elements/1.1/"
   xmlns:cc="http://creativecommons.org/ns#"
   xmlns:rdf="http://www.w3.org/1999/02/22-rdf-syntax-ns#"
   xmlns:svg="http://www.w3.org/2000/svg"
   xmlns="http://www.w3.org/2000/svg"
   xmlns:sodipodi="http://sodipodi.sourceforge.net/DTD/sodipodi-0.dtd"
   xmlns:inkscape="http://www.inkscape.org/namespaces/inkscape"
   version="1.1"
   id="svg2078"
   width="1595.015"
   height="1960.3132"
   viewBox="0 0 1595.015 1960.3132"
   sodipodi:docname="set.svg"
   inkscape:version="1.0rc1 (09960d6, 2020-04-09)">
  <metadata
     id="metadata2084">
    <rdf:RDF>
      <cc:Work
         rdf:about="">
        <dc:format>image/svg+xml</dc:format>
        <dc:type
           rdf:resource="http://purl.org/dc/dcmitype/StillImage" />
        <dc:title></dc:title>
      </cc:Work>
    </rdf:RDF>
  </metadata>
  <defs
     id="defs2082">
    <linearGradient
       osb:paint="solid"
       id="linearGradient1302">
      <stop
         id="stop1300"
         offset="0"
         style="stop-color:#000000;stop-opacity:1;" />
    </linearGradient>
  </defs>
  <sodipodi:namedview
     inkscape:document-rotation="0"
     pagecolor="#ffffff"
     bordercolor="#666666"
     borderopacity="1"
     objecttolerance="10"
     gridtolerance="10"
     guidetolerance="10"
     inkscape:pageopacity="0"
     inkscape:pageshadow="2"
     inkscape:window-width="1440"
     inkscape:window-height="784"
     id="namedview2080"
     showgrid="false"
     inkscape:zoom="0.27648643"
     inkscape:cx="1537.1752"
     inkscape:cy="963.52421"
     inkscape:window-x="0"
     inkscape:window-y="23"
     inkscape:window-maximized="0"
     inkscape:current-layer="g2086" />
  <g
     transform="translate(589.54071,466.569)"
     inkscape:groupmode="layer"
     inkscape:label="Image"
     id="g2086">
    <g
       transform="translate(-1208.0159,-289.34513)"
       id="g1142">
      <path
         inkscape:connector-curvature="0"
         id="path2651"
         d="m 699.4445,984.63688 -2.96689,-11.86756 -9.64239,-20.02652 -6.30465,-18.54306 0.37087,-15.20532 10.01325,-11.86756 12.60929,-4.8212 12.60928,0.74172 9.27154,12.23843 6.6755,11.4967 2.22517,8.52981 0.37086,10.38412 0.37086,11.86756 v 12.60929 l 6.30465,12.60928 12.60928,7.78809 10.38412,11.12584 5.19206,8.5298 2.22517,10.3841 2.59603,10.755 0.74172,10.755 -3.70861,7.0464 -7.41723,7.0463 -10.01326,3.3378 -12.98015,0.3708 -11.86756,-4.0794 -14.09273,-11.4967 -11.4967,-13.7219 -4.45034,-14.0927 -1.11258,-17.05967 1.85431,-10.01325 z"
         style="fill:#51524d;fill-opacity:1;stroke:none;stroke-width:1px;stroke-linecap:butt;stroke-linejoin:miter;stroke-opacity:1" />
      <path
         inkscape:connector-curvature="0"
         id="path2653"
         d="m 769.5373,1010.2263 -3.33775,-11.86755 -5.19206,-11.4967 -2.96689,-14.83445 -5.19206,-18.54307 -0.37086,-8.15895 -2.96689,-17.05962 -5.93379,-11.49671 -10.01325,-7.78808 -8.15895,-4.45034 -4.8212,-6.30464 -4.8212,-5.19206 -6.30464,1.8543 -6.6755,0.74173 -1.48345,1.8543 2.22517,4.8212 12.60928,0.74172 9.27154,12.23843 6.6755,11.4967 2.22517,8.52981 0.74172,34.86097 6.30465,12.60928 12.60928,7.78809 10.38412,11.12584 z"
         style="fill:#4b948f;fill-opacity:1;stroke:none;stroke-width:1px;stroke-linecap:butt;stroke-linejoin:miter;stroke-opacity:1" />
      <path
         inkscape:connector-curvature="0"
         id="path2655"
         d="m 746.91476,923.81562 4.82119,-16.3179 8.90068,-18.17221 13.351,-23.36426 12.23843,-22.25168 14.46359,-14.83446 8.15895,-13.351 4.8212,-11.86757 7.41723,-15.94704 2.22516,-17.05962 -4.45033,0.74173 -13.72187,-2.59603 -20.02651,-5.93379 -14.83446,-7.04636 -3.70861,8.90067 -4.45034,6.30464 -4.8212,-0.37086 1.11259,2.59603 v 9.27154 l -0.74172,12.60928 -9.27154,7.41723 -12.98015,12.23842 -13.351,17.80135 -3.70862,12.98015 -0.74172,13.72187 -1.48345,12.98014 -0.37086,20.76824 9.6424,11.4967 8.15895,4.45034 10.01325,7.78808 z"
         style="fill:#e3ac9f;fill-opacity:1;stroke:none;stroke-width:1px;stroke-linecap:butt;stroke-linejoin:miter;stroke-opacity:1" />
      <path
         inkscape:connector-curvature="0"
         id="path2665"
         d="m 757.29887,770.64988 -7.78808,-2.96689 -0.37087,-10.01325 -1.48344,-12.98015 0.74172,-19.28479 -3.33775,-12.23843 -1.11258,-16.68876 v -16.3179 -14.09273 l 0.37086,-24.84771 -1.48345,-26.70202 6.30464,14.4636 5.56292,14.83445 12.60929,11.4967 21.88082,8.15895 23.36427,2.96689 25.21857,-0.74172 21.50996,-4.8212 21.88081,-10.75498 20.02652,-14.09273 14.83445,-15.57617 9.27154,-10.01326 2.22516,-6.30464 2.22517,-1.48345 3.70861,5.93378 2.9669,4.45034 0.74172,7.78809 -1.11259,5.19206 v 9.27153 l 3.70862,11.86756 v 3.70862 l -2.59603,6.6755 -0.74172,6.30464 1.48344,11.49671 2.22517,12.23842 0.37086,10.01326 -0.37086,12.23842 3.70861,7.04637 6.30465,4.07947 1.8543,4.8212 -2.59603,5.19206 -5.56292,10.01325 -0.37086,3.70862 -5.56292,2.96689 -5.93378,5.56292 -11.12584,3.33775 -12.60929,0.37086 0.37086,2.96689 -5.56292,2.96689 -5.93378,4.07948 -19.65565,1.85431 -5.19206,-3.70862 -6.30464,0.37086 -8.15895,-5.19206 -1.48345,-0.74172 -1.11258,-11.86756 -3.70861,-15.20532 -5.56292,-17.43048 -6.30465,-15.94704 -4.07947,13.35101 -4.07948,9.6424 -1.11258,15.20531 -3.33775,14.09273 0.74172,12.23843 -0.74172,7.41722 -3.70862,-0.37086 -4.45033,0.74173 -13.72187,-2.59603 -20.02651,-5.93379 -14.83446,-7.04636 -3.70861,8.90067 -4.45034,6.30464 z"
         style="fill:#1e1c1f;fill-opacity:1;stroke:none;stroke-width:1px;stroke-linecap:butt;stroke-linejoin:miter;stroke-opacity:1" />
      <path
         inkscape:connector-curvature="0"
         id="path2667"
         d="m 929.7494,602.64969 -2.22517,1.48345 -2.22516,6.30464 -24.10599,25.58943 -20.02652,14.09273 -21.88081,10.75498 -21.50996,4.8212 -25.21857,0.74172 -23.36427,-2.96689 -21.88082,-8.15895 -12.60929,-11.4967 -11.86756,-29.29805 -2.23493,-8.05625 2.83393,-6.14018 V 578.1217 l 0.94464,-19.83751 -0.94464,-14.16965 0.94464,-13.225 -1.88928,-23.14377 -1.41697,-24.56072 1.88929,-32.11787 v -22.67144 l -0.47232,-17.94823 -6.14019,-16.53125 -4.25089,-14.16965 -5.19554,-12.75269 8.02947,-16.05893 10.8634,-14.16965 8.02946,-8.02947 10.39108,-3.30625 5.19554,-8.02947 7.08482,-4.2509 2.83393,-7.08482 3.77858,-3.77857 10.39107,6.6125 9.44644,5.19554 14.64197,2.83393 17.00358,-4.72322 14.16965,-7.08482 5.66786,3.77857 1.88928,4.72322 -2.83393,9.44643 8.97411,2.83393 7.55715,8.02947 7.55715,9.44643 3.77857,6.14018 12.75268,6.6125 12.75269,8.50179 7.55715,5.66786 11.80804,7.08483 -3.77858,11.33572 0.47233,16.05893 -2.36161,22.67144 -2.36161,23.14376 -1.88929,24.08841 -1.41696,27.39465 3.77857,10.39108 0.47232,22.67144 -2.36161,9.91875 -1.41696,6.14019 6.14018,7.08482 3.77857,8.02947 -1.88928,8.02947 1.88928,4.25089 0.47233,4.72322 0.94464,5.19554 2.83393,1.88928 1.88929,5.66786 z"
         style="fill:#ae1913;fill-opacity:1;stroke:none;stroke-width:1px;stroke-linecap:butt;stroke-linejoin:miter;stroke-opacity:1" />
      <path
         inkscape:connector-curvature="0"
         id="path2671"
         d="m 819.1848,927.26758 -8.26863,-16.53726 -5.90616,-30.71205 7.08739,-18.89972 11.81233,-6.49678 14.7654,2.95309 8.85925,7.67801 5.31555,15.35602 1.18123,18.30911 -3.5437,17.12787 0.59062,14.76541 7.08739,13.58417 7.0874,18.30911 -1.77185,16.53725 -5.90616,16.53726 -5.31555,12.99353 -4.72493,11.2217 -8.26863,4.725 -12.99356,-4.1343 -8.26863,-7.6781 -6.49678,-10.0404 -6.49677,-15.94668 -1.77185,-18.89972 4.13431,-14.76541 8.85924,-12.40294 z"
         style="fill:#51524d;fill-opacity:1;stroke:none;stroke-width:1px;stroke-linecap:butt;stroke-linejoin:miter;stroke-opacity:1" />
      <path
         inkscape:connector-curvature="0"
         id="path2673"
         d="m 841.35079,860.75166 1.61674,-0.6467 -3.23347,-8.08369 0.64669,-6.46696 3.88017,-1.94008 11.64052,3.55682 1.94009,4.52687 v 8.40704 2.26344 l 5.82026,3.23347 6.46695,7.437 2.26344,7.76035 0.32334,10.02378 -2.58678,7.43699 -2.26343,11.31718 -1.61674,10.99382 -0.6467,12.61056 0.32335,7.11365 -0.64669,5.49691 v 6.7903 l -0.0257,10.12215 -7.0874,-18.30911 -7.08739,-13.58417 -0.59062,-14.76541 3.5437,-17.12787 -1.18123,-18.30911 -5.31555,-15.35602 z"
         style="fill:#4b948f;fill-opacity:1;stroke:none;stroke-width:1px;stroke-linecap:butt;stroke-linejoin:miter;stroke-opacity:1" />
      <path
         inkscape:connector-curvature="0"
         id="path2675"
         d="m 855.90144,847.17105 0.97005,-12.93391 1.94008,-15.52069 6.46696,-16.49073 1.29339,-6.14361 -2.26344,-8.40704 -3.23347,-17.13743 v -8.08369 l 4.88624,3.00387 6.30464,-0.37086 5.19206,3.70862 19.65565,-1.85431 5.93378,-4.07948 5.56292,-2.96689 -0.37086,-2.96689 12.60929,-0.37086 11.12584,-3.33775 5.93378,-5.56292 -2.46337,15.44416 -5.82026,21.98765 -4.20352,6.7903 -1.61673,12.93391 -4.52687,18.43082 -9.70043,20.04756 -15.19735,21.98765 -14.87399,15.19734 -7.76035,6.46695 0.6467,-6.1436 -2.26344,-7.76035 -6.46695,-7.437 -5.82026,-3.23347 v -10.67048 z"
         style="fill:#e3ac9f;fill-opacity:1;stroke:none;stroke-width:1px;stroke-linecap:butt;stroke-linejoin:miter;stroke-opacity:1" />
      <g
         id="g1062"
         transform="matrix(1.0454585,0,0,1.0454533,-67.933764,16.306834)">
        <g
           transform="matrix(0.20289452,0,0,0.2041448,788.03062,-17.509682)"
           id="g2903">
          <g
             transform="matrix(3.7795276,0,0,3.7795276,85.440331,22.667731)"
             inkscape:label="Layer 1"
             id="layer1">
            <path
               sodipodi:nodetypes="cc"
               inkscape:connector-curvature="0"
               id="path1418"
               d="M 93.04466,148.85145 C 61.863721,124.85829 67.191021,78.404684 81.52916,62.598959"
               style="fill:none;stroke:#000000;stroke-width:0.997741;stroke-linecap:butt;stroke-linejoin:miter;stroke-miterlimit:4;stroke-dasharray:none;stroke-opacity:1" />
            <path
               style="fill:none;stroke:#000000;stroke-width:1.00613;stroke-linecap:butt;stroke-linejoin:miter;stroke-miterlimit:4;stroke-dasharray:none;stroke-opacity:1"
               d="M 69.601337,164.28726 C 38.422755,139.88706 45.263772,94.442491 55.563175,78.368626"
               id="path1420"
               inkscape:connector-curvature="0"
               sodipodi:nodetypes="cc" />
            <ellipse
               style="fill:#ffffff;fill-opacity:0;stroke:#000000;stroke-width:1.00599;stroke-miterlimit:4;stroke-dasharray:none;stroke-opacity:1"
               id="path1410"
               cx="105.27128"
               cy="129.13179"
               rx="71.219254"
               ry="70.765961" />
            <path
               style="fill:none;stroke:#000000;stroke-width:1;stroke-linecap:butt;stroke-linejoin:miter;stroke-miterlimit:4;stroke-dasharray:none;stroke-opacity:1"
               d="M 105.45996,129.42813 C 83.870802,100.782 91.947182,74.041352 105.77953,58.162763"
               id="path1412"
               inkscape:connector-curvature="0"
               sodipodi:nodetypes="cc" />
            <path
               sodipodi:nodetypes="cc"
               inkscape:connector-curvature="0"
               id="path1414"
               d="m 105.45996,129.42813 c -14.0137,33.01982 -41.209966,39.3958 -61.877406,35.35593"
               style="fill:none;stroke:#000000;stroke-width:1;stroke-linecap:butt;stroke-linejoin:miter;stroke-miterlimit:4;stroke-dasharray:none;stroke-dashoffset:10;stroke-opacity:1" />
            <path
               sodipodi:nodetypes="cc"
               inkscape:connector-curvature="0"
               id="path1416"
               d="m 105.45996,129.42813 c 35.60285,-4.37369 54.72274,15.99098 61.55783,35.90944"
               style="fill:none;stroke:#000000;stroke-width:1;stroke-linecap:butt;stroke-linejoin:miter;stroke-miterlimit:4;stroke-dasharray:none;stroke-opacity:1" />
            <g
               id="g1430"
               transform="rotate(120,105.4939,129.17901)">
              <path
                 sodipodi:nodetypes="cc"
                 inkscape:connector-curvature="0"
                 id="path1426"
                 d="M 93.572954,148.85053 C 62.394372,124.74676 67.721269,78.079004 82.058324,62.200415"
                 style="fill:none;stroke:#000000;stroke-width:1;stroke-linecap:butt;stroke-linejoin:miter;stroke-miterlimit:4;stroke-dasharray:none;stroke-opacity:1" />
              <path
                 style="fill:none;stroke:#000000;stroke-width:1;stroke-linecap:butt;stroke-linejoin:miter;stroke-miterlimit:4;stroke-dasharray:none;stroke-opacity:1"
                 d="M 70.130504,163.24346 C 38.951922,139.13969 45.792939,94.247215 56.092342,78.368626"
                 id="path1428"
                 inkscape:connector-curvature="0"
                 sodipodi:nodetypes="cc" />
            </g>
            <g
               transform="rotate(-120,105.24642,129.22766)"
               id="g1436">
              <path
                 style="fill:none;stroke:#000000;stroke-width:1;stroke-linecap:butt;stroke-linejoin:miter;stroke-miterlimit:4;stroke-dasharray:none;stroke-opacity:1"
                 d="M 93.572954,148.85053 C 62.394372,124.74676 67.721269,78.079004 82.058324,62.200415"
                 id="path1432"
                 inkscape:connector-curvature="0"
                 sodipodi:nodetypes="cc" />
              <path
                 sodipodi:nodetypes="cc"
                 inkscape:connector-curvature="0"
                 id="path1434"
                 d="M 70.130504,163.24346 C 38.951922,139.13969 45.792939,94.247215 56.092342,78.368626"
                 style="fill:none;stroke:#000000;stroke-width:1;stroke-linecap:butt;stroke-linejoin:miter;stroke-miterlimit:4;stroke-dasharray:none;stroke-opacity:1" />
            </g>
            <path
               style="fill:#ffffff;fill-opacity:0;stroke:none;stroke-width:3.73039;stroke-miterlimit:4;stroke-dasharray:none;stroke-dashoffset:37.7953;stroke-opacity:1"
               d="M 344.17014,551.37308 C 280.62265,495.81605 254.41596,398.14416 278.25218,305.69806 283.88634,283.8466 294.61701,259.64279 304.8191,245.7744 l 4.75097,-6.45831 10.76567,-3.3112 c 19.41214,-5.97058 39.4707,-9.38414 66.27128,-11.278 l 6.1536,-0.43484 -4.29065,5.58049 c -19.1145,24.86065 -32.63273,54.76865 -39.23212,86.79796 -2.91299,14.13785 -3.66159,47.03578 -1.41985,62.39686 4.78668,32.79978 18.00271,66.00215 38.47588,96.66221 l 9.51164,14.24436 -6.87118,13.88628 c -9.37284,18.94201 -21.40375,37.60536 -33.35255,51.73923 l -2.79535,3.30654 z"
               id="path1438"
               inkscape:connector-curvature="0"
               transform="scale(0.26458333)" />
            <path
               style="fill:#024fa1;fill-opacity:0;stroke:none;stroke-width:3.68205;stroke-miterlimit:4;stroke-dasharray:none;stroke-dashoffset:37.7953;stroke-opacity:1"
               d="M 344.17014,551.37308 C 280.62265,495.81605 254.41596,398.14416 278.25218,305.69806 283.88634,283.8466 294.61701,259.64279 304.8191,245.7744 l 4.75097,-6.45831 10.76567,-3.3112 c 19.41214,-5.97058 39.4707,-9.38414 66.27128,-11.278 l 6.1536,-0.43484 -4.29065,5.58049 c -19.1145,24.86065 -32.63273,54.76865 -39.23212,86.79796 -2.91299,14.13785 -3.66159,47.03578 -1.41985,62.39686 4.78668,32.79978 18.00271,66.00215 38.47588,96.66221 l 9.51164,14.24436 -6.87118,13.88628 c -9.37284,18.94201 -21.40375,37.60536 -33.35255,51.73923 l -2.79535,3.30654 z"
               id="path1440"
               inkscape:connector-curvature="0"
               transform="scale(0.26458333)" />
            <path
               style="fill:#024fa1;fill-opacity:0;stroke:none;stroke-width:3.68205;stroke-miterlimit:4;stroke-dasharray:none;stroke-dashoffset:37.7953;stroke-opacity:1"
               d="M 344.17014,551.37308 C 280.62265,495.81605 254.41596,398.14416 278.25218,305.69806 283.88634,283.8466 294.61701,259.64279 304.8191,245.7744 l 4.75097,-6.45831 10.76567,-3.3112 c 19.41214,-5.97058 39.4707,-9.38414 66.27128,-11.278 l 6.1536,-0.43484 -4.29065,5.58049 c -19.1145,24.86065 -32.63273,54.76865 -39.23212,86.79796 -2.91299,14.13785 -3.66159,47.03578 -1.41985,62.39686 4.78668,32.79978 18.00271,66.00215 38.47588,96.66221 l 9.51164,14.24436 -6.87118,13.88628 c -9.37284,18.94201 -21.40375,37.60536 -33.35255,51.73923 l -2.79535,3.30654 z"
               id="path1442"
               inkscape:connector-curvature="0"
               transform="scale(0.26458333)" />
            <path
               style="fill:#024fa1;fill-opacity:0;stroke:none;stroke-width:3.68205;stroke-miterlimit:4;stroke-dasharray:none;stroke-dashoffset:37.7953;stroke-opacity:1"
               d="M 344.17014,551.37308 C 280.62265,495.81605 254.41596,398.14416 278.25218,305.69806 283.88634,283.8466 294.61701,259.64279 304.8191,245.7744 l 4.75097,-6.45831 10.76567,-3.3112 c 19.41214,-5.97058 39.4707,-9.38414 66.27128,-11.278 l 6.1536,-0.43484 -4.29065,5.58049 c -19.1145,24.86065 -32.63273,54.76865 -39.23212,86.79796 -2.91299,14.13785 -3.66159,47.03578 -1.41985,62.39686 4.78668,32.79978 18.00271,66.00215 38.47588,96.66221 l 9.51164,14.24436 -6.87118,13.88628 c -9.37284,18.94201 -21.40375,37.60536 -33.35255,51.73923 l -2.79535,3.30654 z"
               id="path1444"
               inkscape:connector-curvature="0"
               transform="scale(0.26458333)" />
            <path
               style="fill:#024fa1;fill-opacity:0;stroke:none;stroke-width:3.68205;stroke-miterlimit:4;stroke-dasharray:none;stroke-dashoffset:37.7953;stroke-opacity:1"
               d="M 344.17014,551.37308 C 280.62265,495.81605 254.41596,398.14416 278.25218,305.69806 283.88634,283.8466 294.61701,259.64279 304.8191,245.7744 l 4.75097,-6.45831 10.76567,-3.3112 c 19.41214,-5.97058 39.4707,-9.38414 66.27128,-11.278 l 6.1536,-0.43484 -4.29065,5.58049 c -19.1145,24.86065 -32.63273,54.76865 -39.23212,86.79796 -2.91299,14.13785 -3.66159,47.03578 -1.41985,62.39686 4.78668,32.79978 18.00271,66.00215 38.47588,96.66221 l 9.51164,14.24436 -6.87118,13.88628 c -9.37284,18.94201 -21.40375,37.60536 -33.35255,51.73923 l -2.79535,3.30654 z"
               id="path1446"
               inkscape:connector-curvature="0"
               transform="scale(0.26458333)" />
            <path
               style="fill:#024fa1;fill-opacity:0;stroke:none;stroke-width:3.68205;stroke-miterlimit:4;stroke-dasharray:none;stroke-dashoffset:37.7953;stroke-opacity:1"
               d="M 628.71089,611.24912 C 601.27671,543.912 543.91735,498.50902 472.24816,487.40057 c -13.07997,-2.02734 -45.0824,-2.88535 -64.63359,-1.73287 l -8.3723,0.49352 -8.42749,-12.52094 c -4.63512,-6.88652 -11.1629,-17.76864 -14.50617,-24.18249 -6.28951,-12.06598 -15.10246,-32.62944 -15.10246,-35.2389 0,-1.03197 3.70483,-2.68624 12.09124,-5.39893 24.26618,-7.8492 43.62892,-10.49844 71.23588,-9.74659 37.23019,1.01392 68.23517,9.2482 105.28135,27.96053 41.07365,20.74664 78.70935,54.23013 99.11499,88.18001 5.23336,8.70699 10.3376,20.67286 10.34317,24.24748 0.0175,11.21754 -15.12667,54.47278 -25.30648,72.28125 l -2.95104,5.16254 z"
               id="path1448"
               inkscape:connector-curvature="0"
               transform="scale(0.26458333)" />
            <path
               style="fill:#024fa1;fill-opacity:0;stroke:none;stroke-width:3.68205;stroke-miterlimit:4;stroke-dasharray:none;stroke-dashoffset:37.7953;stroke-opacity:1"
               d="M 657.99395,521.44681 C 629.98514,466.71734 563.61824,417.80472 494.28618,400.79368 c -22.08765,-5.41934 -30.82018,-6.40284 -56.58442,-6.37281 -18.01042,0.021 -26.04486,0.44014 -33.51698,1.74853 -12.66203,2.21716 -26.90707,5.84029 -36.98793,9.40762 l -7.98939,2.82722 -1.45293,-5.0448 c -5.54849,-19.26509 -8.18093,-45.23634 -6.49098,-64.03881 0.59681,-6.64008 1.7867,-15.93223 2.6442,-20.64923 l 1.5591,-8.57635 8.54513,-3.09724 c 35.86977,-13.00125 75.63367,-15.6956 114.61118,-7.76592 60.69326,12.34758 126.47282,53.64922 163.29289,102.52827 13.45216,17.8579 15.49505,22.65824 19.53648,45.90649 1.97297,11.34943 2.22597,16.08072 2.19039,40.96217 -0.0221,15.47185 -0.47808,30.79565 -1.01321,34.05288 l -0.97298,5.92224 z"
               id="path1450"
               inkscape:connector-curvature="0"
               transform="scale(0.26458333)" />
            <path
               style="fill:#024fa1;fill-opacity:1;stroke:#014fa2;stroke-width:2.26772;stroke-miterlimit:4;stroke-dasharray:none;stroke-dashoffset:37.7953;stroke-opacity:1"
               d="m 230.12006,689.91348 c -5.92752,-0.76956 -6.60884,-1.15335 -14.23391,-8.01792 -8.45334,-7.61025 -21.63067,-21.95475 -29.17498,-31.75914 -6.52708,-8.48244 -16.05601,-22.61172 -15.57438,-23.09334 0.227,-0.22701 5.34509,0.13193 11.37352,0.79765 17.22458,1.90209 48.77027,0.72217 63.98681,-2.39332 15.47517,-3.16845 26.40773,-6.51663 39.4049,-12.06806 45.46259,-19.41825 81.95209,-55.70217 106.65091,-106.05004 l 7.6413,-15.5766 4.44168,-0.82166 c 8.1923,-1.5155 54.77107,-0.91125 65.46221,0.84921 5.33193,0.87798 9.96042,1.86233 10.28552,2.18742 0.3251,0.3251 -0.40454,5.33611 -1.62144,11.13558 -13.60674,64.8472 -59.83452,122.27962 -126.43941,157.0857 -41.82012,21.85416 -87.53423,32.22547 -122.20273,27.72452 z"
               id="path1458"
               inkscape:connector-curvature="0"
               transform="scale(0.26458333)" />
            <path
               transform="scale(0.26458333)"
               style="fill:#024fa1;fill-opacity:1;stroke:#014fa2;stroke-width:2.26772;stroke-miterlimit:4;stroke-dasharray:none;stroke-dashoffset:37.7953;stroke-opacity:1"
               d="m 374.16778,752.08988 c -9.22505,-0.88982 -29.98084,-3.97049 -29.53519,-4.38376 0.15807,-0.14659 5.18144,-0.97943 11.16304,-1.85077 14.57059,-2.1225 34.74555,-7.29896 49.9597,-12.81856 78.32509,-28.4159 136.63578,-82.23163 161.08234,-148.66508 2.82635,-7.68058 7.86177,-26.62063 10.2342,-38.49456 0.4656,-2.3303 0.84741,-2.08314 6.86156,4.44168 17.36343,18.83776 33.87638,45.32368 42.26413,67.78945 l 1.72449,4.61888 -5.67171,8.70616 c -14.26197,21.89232 -37.39398,47.52624 -56.72688,62.86234 -48.54132,38.50609 -108.72426,59.32277 -169.77091,58.72205 -7.32877,-0.0722 -17.04192,-0.48965 -21.58477,-0.92783 z"
               id="path1460"
               inkscape:connector-curvature="0" />
            <path
               style="fill:#feda00;fill-opacity:1;stroke:#ffdb00;stroke-width:1.13386;stroke-miterlimit:4;stroke-dasharray:none;stroke-dashoffset:37.7953;stroke-opacity:1"
               d="m 310.8671,738.54241 c -16.97502,-6.0912 -25.57731,-9.80783 -38.49457,-16.63161 -9.99876,-5.28205 -31.90313,-19.33074 -38.00104,-24.37255 l -2.96112,-2.44827 9.92142,0.54137 c 17.1165,0.934 43.4687,-2.77607 64.5617,-9.08948 31.20848,-9.34113 65.31733,-26.89292 90.8461,-46.74777 35.7818,-27.82907 62.8391,-63.46044 77.65785,-102.26646 3.39875,-8.90033 9.47439,-30.90698 10.68201,-38.69133 l 0.63675,-4.10459 8.78458,2.3509 c 25.8882,6.92814 51.61581,20.0659 71.26944,36.39362 7.68925,6.38802 7.6339,6.1471 4.66257,20.29723 -10.26884,48.9024 -38.35453,93.16064 -80.60051,127.01262 -44.36767,35.5521 -104.90987,59.97344 -153.79566,62.03764 l -11.84448,0.50014 z"
               id="path1462"
               inkscape:connector-curvature="0"
               transform="scale(0.26458333)" />
            <path
               style="fill:#feda00;fill-opacity:1;stroke:#ffdb00;stroke-width:1.13386;stroke-miterlimit:4;stroke-dasharray:none;stroke-dashoffset:37.7953;stroke-opacity:1"
               d="M 657.99395,521.44681 C 629.98514,466.71734 563.61824,417.80472 494.28618,400.79368 c -22.08765,-5.41934 -30.82018,-6.40284 -56.58442,-6.37281 -18.01042,0.021 -26.04486,0.44014 -33.51698,1.74853 -12.66203,2.21716 -26.90707,5.84029 -36.98793,9.40762 l -7.98939,2.82722 -1.45293,-5.0448 c -5.54849,-19.26509 -8.18093,-45.23634 -6.49098,-64.03881 0.59681,-6.64008 1.7867,-15.93223 2.6442,-20.64923 l 1.5591,-8.57635 8.54513,-3.09724 c 35.86977,-13.00125 75.63367,-15.6956 114.61118,-7.76592 60.69326,12.34758 126.47282,53.64922 163.29289,102.52827 13.45216,17.8579 15.49505,22.65824 19.53648,45.90649 1.97297,11.34943 2.22597,16.08072 2.19039,40.96217 -0.0221,15.47185 -0.47808,30.79565 -1.01321,34.05288 l -0.97298,5.92224 z"
               id="path1464"
               inkscape:connector-curvature="0"
               transform="scale(0.26458333)" />
            <path
               transform="scale(0.26458333)"
               style="fill:#024ea2;fill-opacity:1;stroke:#014fa2;stroke-width:2.26772;stroke-miterlimit:4;stroke-dasharray:none;stroke-dashoffset:37.7953;stroke-opacity:1"
               d="M 628.71089,611.24912 C 601.27671,543.912 543.91735,498.50902 472.24816,487.40057 c -13.07997,-2.02734 -45.0824,-2.88535 -64.63359,-1.73287 l -8.3723,0.49352 -8.42749,-12.52094 c -4.63512,-6.88652 -11.1629,-17.76864 -14.50617,-24.18249 -6.28951,-12.06598 -15.10246,-32.62944 -15.10246,-35.2389 0,-1.03197 3.70483,-2.68624 12.09124,-5.39893 24.26618,-7.8492 43.62892,-10.49844 71.23588,-9.74659 37.23019,1.01392 68.23517,9.2482 105.28135,27.96053 41.07365,20.74664 78.70935,54.23013 99.11499,88.18001 5.23336,8.70699 10.3376,20.67286 10.34317,24.24748 0.0175,11.21754 -15.12667,54.47278 -25.30648,72.28125 l -2.95104,5.16254 z"
               id="path1474"
               inkscape:connector-curvature="0" />
            <path
               transform="scale(0.26458333)"
               inkscape:connector-curvature="0"
               id="path869"
               d="m 256.36865,612.30543 c -35.20526,-29.80524 -61.00382,-75.1649 -71.10503,-125.01857 -4.15857,-20.52431 -5.18988,-31.7561 -5.20002,-56.63249 -0.0101,-24.76473 0.90492,-36.00503 4.54434,-55.82335 5.01922,-27.33194 15.08712,-57.11342 24.50224,-72.47907 5.47763,-8.9396 29.34886,-28.27319 50.9975,-41.30347 11.32226,-6.81484 37.73889,-19.74088 40.34397,-19.74088 0.30098,0 -1.29168,2.66956 -3.53925,5.93235 -27.40796,39.78809 -39.90985,106.70881 -31.23487,167.19548 8.42076,58.71411 36.05285,110.10119 77.64893,144.40281 2.69687,2.22394 4.99998,4.28541 5.11802,4.58104 0.31551,0.79018 -12.52522,12.82224 -20.48183,19.19193 -18.14952,14.52965 -41.42537,26.89694 -62.54157,33.23057 l -3.59996,1.07978 z"
               style="fill:#ffdb00;stroke:#ffdb00;stroke-width:2.85116;stroke-dashoffset:37.7953;stroke-opacity:1" />
            <path
               transform="scale(0.26458333)"
               inkscape:connector-curvature="0"
               id="path871"
               d="m 649.08669,403.17937 c -0.90497,-1.38609 -4.34036,-5.87038 -7.63419,-9.96508 -29.95239,-37.23504 -78.02068,-71.11905 -125.09977,-88.18459 -28.37398,-10.28519 -53.04208,-14.71894 -81.91257,-14.72264 -25.94858,-0.003 -46.03605,3.2501 -69.02925,11.1802 l -8.46752,2.92035 0.46585,-1.941 c 1.78328,-7.4301 8.17078,-23.65569 13.83086,-35.13326 6.96289,-14.11942 15.13169,-27.17509 23.78974,-38.02165 l 5.05929,-6.33812 12.16603,0.47786 c 47.65038,1.87163 98.08902,19.1667 138.87408,47.61898 44.11616,30.77612 80.49431,77.97449 97.65618,126.70279 2.65068,7.52617 2.74076,9.1426 0.30127,5.40616 z"
               style="fill:#014fa2;fill-opacity:1;stroke:#014fa2;stroke-width:2.85116;stroke-dashoffset:37.7953;stroke-opacity:1" />
          </g>
          <path
             inkscape:connector-curvature="0"
             id="path2870"
             d="m 424.4406,569.94577 c -28.35308,-25.91311 -52.30008,-67.13479 -62.88461,-108.24776 -15.87448,-61.66043 -5.75664,-140.39968 23.82211,-185.38896 8.24853,-12.54603 11.18755,-15.22006 19.85249,-18.06256 13.72429,-4.50222 38.18092,-9.33539 56.81562,-11.22803 12.53048,-1.27267 14.97813,-1.00971 13.42286,1.44202 -1.04616,1.64918 -5.5396,8.53544 -9.98542,15.3028 -18.75745,28.55231 -29.20494,56.7673 -33.21186,89.69357 -5.32662,43.7707 5.96852,91.89786 31.19953,132.93725 18.42935,29.97616 17.30763,25.69313 10.41734,39.7764 -5.91951,12.09903 -23.59406,39.77568 -32.20729,50.43351 l -4.22942,5.23341 z"
             style="fill:#000000;fill-opacity:0;stroke:none;stroke-width:8.45535;stroke-dashoffset:37.7953" />
          <path
             inkscape:connector-curvature="0"
             id="path2872"
             d="m 261.3857,644.67263 c -8.4339,-0.87287 -8.79006,-1.28967 -18.31809,-21.43609 -40.71356,-86.08636 -32.5649,-183.74556 21.92564,-262.77202 6.17192,-8.951 11.68558,-15.81063 12.25258,-15.24363 0.56701,0.567 -1.03735,7.38719 -3.56524,15.15597 -12.57748,38.65347 -17.00249,94.15311 -10.75809,134.93085 8.14285,53.17518 29.48776,98.07121 62.75824,132.00316 l 13.8485,14.12385 -16.40614,2.4401 c -15.69576,2.33446 -43.42721,2.69283 -61.7374,0.79781 z"
             style="fill:#000000;fill-opacity:0;stroke:none;stroke-width:8.45535;stroke-dashoffset:37.7953" />
        </g>
        <path
           inkscape:connector-curvature="0"
           id="path1029"
           d="m 841.26731,113.77629 c -1.09722,-0.21571 -2.52777,-1.53866 -3.17899,-2.93987 -7.39633,-15.914595 -7.34171,-32.848332 0.15506,-48.076431 3.29739,-6.697961 5.19363,-8.708105 4.16473,-4.41491 -0.36073,1.505189 -0.90189,7.306933 -1.20257,12.892767 -0.87699,16.291754 1.98957,26.486026 10.32548,36.720284 l 4.31858,5.30205 -3.46124,0.57234 c -3.67852,0.60828 -7.84831,0.5872 -11.12105,-0.0562 z"
           style="fill:#000000;fill-opacity:0;stroke-width:3.5684;stroke-dashoffset:37.7953" />
      </g>
      <path
         inkscape:connector-curvature="0"
         id="path2677"
         d="m 926.22276,377.385 8.57553,-12.97211 14.87399,-17.78412 9.37709,-11.31717 6.14361,-11.96387 5.82025,-4.85022 1.2934,-10.34712 -3.55683,-16.16739 -7.11365,-15.52069 -9.37708,-11.96387 -6.79031,-5.49691 -9.37708,7.11365 -1.61674,2.58678 -5.82026,0.6467 -1.94008,2.26343 -1.61674,4.20352 -6.79031,0.6467 -2.58678,1.29339 -2.91013,1.61674 -3.55682,-1.29339 -2.91013,3.88017 -5.17357,0.32335 -1.61673,2.26343 -2.91013,1.29339 -1.29339,-1.29339 h -1.94009 l -2.91013,3.55683 -7.437,2.26343 -0.64669,4.20352 -3.23348,1.94009 -6.14361,-1.29339 -3.88017,3.23348 v 5.49691 l -4.52687,2.58678 -4.20352,-5.82026 -2.58678,-1.94009 -3.23348,2.91013 -0.64669,-3.55682 -7.76035,-0.32335 -10.34713,3.55682 -10.34712,4.85022 -12.28722,-0.64669 -11.31717,-2.58679 -10.99382,-5.49691 -4.85022,-2.26343 -1.29339,0.32335 -7.76034,0.64669 -9.37709,-6.7903 -2.58678,-1.94009 -3.55683,-1.61674 -2.58678,-4.52686 -3.88017,-0.97005 -3.23348,-5.49691 -4.85021,-6.7903 -5.49691,-3.23348 -7.76035,-2.58678 -11.64052,0.64669 -10.67047,4.52687 -8.40704,9.70043 -4.52687,11.31718 -0.32335,10.67047 4.85022,12.28721 6.1436,13.58061 5.49691,14.55065 5.17357,12.28721 7.13097,15.19159 8.02947,-16.05893 10.8634,-14.16965 8.02946,-8.02947 10.39108,-3.30625 5.19554,-8.02947 7.08482,-4.2509 2.83393,-7.08482 3.77858,-3.77857 10.39107,6.6125 9.44644,5.19554 14.64197,2.83393 17.00358,-4.72322 14.16965,-7.08482 5.66786,3.77857 1.88928,4.72322 -2.83393,9.44643 8.97411,2.83393 7.55715,8.02947 7.55715,9.44643 3.77857,6.14018 12.75268,6.6125 z"
         style="fill:#1e1c1f;fill-opacity:1;stroke:none;stroke-width:1px;stroke-linecap:butt;stroke-linejoin:miter;stroke-opacity:1" />
      <path
         inkscape:connector-curvature="0"
         id="path2697"
         d="m 786.05833,295.21648 1.94009,-2.58678 v -2.91013 l 6.46695,3.55682 10.34713,1.61674 10.34713,-1.94009 13.25726,-4.20352 9.37708,-6.1436 5.49691,-3.88018 -0.32335,-5.49691 1.29339,-12.61056 1.94009,-5.17356 -0.97004,-3.88018 0.64669,-5.17356 4.20352,-6.46695 1.94009,-3.55683 0.32335,-1.94009 2.91013,2.26344 1.94008,-1.94009 0.32335,-4.85021 -1.94009,-5.17357 0.97005,-11.96386 3.55682,-3.55683 -0.32335,-8.08369 -2.58678,-6.46696 1.94009,-6.1436 -1.29339,-8.73039 -4.52687,-9.70043 -10.99382,-7.76035 -8.73039,-3.55682 h -7.437 l -4.85021,-3.55683 -7.437,-0.97004 -2.58678,0.32335 -1.2934,-7.437 -4.20352,-4.52687 -5.82026,-0.97004 -3.23347,0.97004 -7.76035,-0.6467 -10.34713,1.94009 -7.43699,4.85022 -2.26344,5.49691 -5.82026,3.55682 -5.82026,5.49691 -8.40704,8.0837 -8.40704,12.61056 -2.58678,12.93391 -3.88017,15.19734 3.55682,14.55065 5.49691,11.64052 9.37709,13.25725 2.91013,2.91013 4.20352,4.52687 6.46695,10.99382 4.85022,9.05374 3.88017,1.61674 3.23348,4.20352 10.34713,5.17356 -0.6467,0.97005 z"
         style="fill:#1e1c1f;fill-opacity:1;stroke:none;stroke-width:1px;stroke-linecap:butt;stroke-linejoin:miter;stroke-opacity:1" />
      <path
         inkscape:connector-curvature="0"
         id="path2699"
         d="m 784.76494,295.53983 3.23348,-5.82026 6.46695,3.55682 10.34713,1.61674 10.34713,-1.94009 13.25726,-4.20352 14.87399,-10.02378 -0.32335,-5.49691 1.29339,-12.61056 1.94009,-5.17356 -0.97004,-3.88018 0.64669,-5.17356 4.20352,-6.46695 1.94009,-3.55683 0.32335,-1.94009 2.91013,2.26344 1.94008,-1.94009 0.32335,-4.85021 -1.94009,-5.17357 0.32335,-3.23347 2.91013,3.55682 1.61674,10.02378 -0.32335,15.19734 -2.26343,10.34713 -4.52687,8.40704 -1.94009,8.73039 -0.97004,8.73039 3.55683,11.64052 -7.76035,-0.32335 -10.34713,3.55682 -10.34712,4.85022 -12.28722,-0.64669 -11.31717,-2.58679 z"
         style="fill:#e3ac9f;fill-opacity:1;stroke:none;stroke-width:1px;stroke-linecap:butt;stroke-linejoin:miter;stroke-opacity:1" />
      <path
         inkscape:connector-curvature="0"
         id="path2701"
         d="m 945.46876,259.00153 13.44417,-10.32877 12.41886,-9.75767 4.73099,-2.06981 -4.13962,-16.55847 -7.68786,-23.95064 -5.02668,-13.01023 -10.05336,-17.44553 -7.68786,-13.01023 -3.84393,-4.13962 h -9.75767 l -6.8008,1.77412 -7.09649,0.88706 -6.8008,1.77412 -6.50512,2.95687 -3.25255,2.66119 -8.27924,1.18275 -6.8008,0.59137 v -1.47844 l 5.32237,-3.54824 5.91374,-4.13962 -7.98355,-0.59137 -7.09649,-0.29569 -7.39218,-4.13962 -1.18274,-2.95687 2.66118,-2.66118 6.50511,-0.29569 5.91374,0.88706 7.98355,-0.59137 2.3655,-1.18275 -5.02668,-2.36549 -10.05336,-3.54825 -6.8008,-4.73099 -0.88706,-3.54824 4.13962,-4.43531 4.4353,0.59138 8.57492,4.13961 7.98355,1.77413 5.32237,-0.29569 3.54824,-2.3655 -5.02668,-3.84393 -6.20942,-4.73099 -6.8008,-5.02668 -5.91374,-5.02668 -0.29569,-3.25255 2.95687,-2.3655 5.61805,0.29569 5.91374,4.73099 6.8008,4.73099 7.09649,5.02668 3.54825,-1.18275 0.88706,-3.84393 -2.66119,-5.91374 -5.02668,-7.392175 -3.54824,-8.87061 0.88706,-4.139618 3.25256,-0.887061 3.84393,2.661183 4.13962,6.505114 3.54824,6.209427 4.13962,5.61805 3.25256,2.06981 7.68786,1.47844 7.39217,1.77412 5.61806,4.13962 7.39217,8.87061 6.8008,5.91374 6.50512,6.8008 7.68786,11.53179 8.57492,11.82748 8.87061,12.71454 8.57489,13.01023 7.0965,12.41885 5.6181,14.48867 5.0267,12.71454 5.0266,9.16629 0.8871,10.64474 -6.5051,8.27923 -10.9404,15.37573 -11.53183,14.78435 -12.12317,15.08003 -9.46198,9.46199 -2.86909,1.52297 -3.55683,-16.16739 -7.11365,-15.52069 -9.37708,-11.96387 z"
         style="fill:#e3ac9f;fill-opacity:1;stroke:none;stroke-width:1px;stroke-linecap:butt;stroke-linejoin:miter;stroke-opacity:1" />
      <path
         inkscape:connector-curvature="0"
         id="path2703"
         d="m 726.50295,229.7488 8.57493,17.14984 5.91374,12.71454 0.44473,5.20861 -7.76035,-2.58678 -11.64052,0.64669 -10.67047,4.52687 -8.40704,9.70043 -4.52687,11.31718 -3.27097,-14.32433 -2.95687,-13.01023 -2.66118,-12.41886 -1.77412,-14.78435 v -8.27923 l 1.47843,-12.71454 8.27924,-16.26279 8.57492,-15.37572 10.64473,-15.67141 10.94042,-12.41886 9.1663,-10.05335 8.27923,-9.1663 6.50512,-9.75767 7.09649,-9.75767 5.02667,-5.91374 4.43531,-9.461986 6.50511,-7.096488 9.75767,-5.91374 7.39218,-4.435305 4.13962,-0.295687 0.88706,1.182748 4.73099,-4.139618 4.4353,-4.730992 4.43531,-0.887061 1.77412,1.774122 -2.95687,5.91374 -1.47843,4.139618 -6.20943,7.096488 -6.50511,8.279236 4.13961,-2.661183 5.91374,-3.252557 1.77413,3.548244 0.29568,5.913741 -1.77412,3.25256 -3.25256,1.18274 -3.54824,1.77413 -0.88706,1.47843 2.06981,3.54824 3.84393,1.77413 1.47843,4.13961 2.95687,3.84394 1.18275,6.8008 -0.59137,2.06981 -10.34905,-0.88707 -7.98355,1.47844 -6.8008,0.29569 -6.20942,6.8008 -3.84393,4.13962 -2.33285,3.55764 -2.26344,5.49691 -5.82026,3.55682 -14.2273,13.58061 -8.40704,12.61056 -6.46695,28.13125 -3.94815,9.94482 z"
         style="fill:#e3ac9f;fill-opacity:1;stroke:none;stroke-width:1px;stroke-linecap:butt;stroke-linejoin:miter;stroke-opacity:1" />
      <path
         style="fill:#000000;fill-opacity:0;stroke-width:3.5684;stroke-dashoffset:37.7953"
         d="m 871.82865,95.704118 c -6.67523,-7.136352 -10.20698,-15.544509 -11.61347,-27.648545 -1.44019,-12.394052 4.07301,-29.871473 10.23503,-32.446131 3.9376,-1.645231 13.33999,-2.976304 12.78431,-1.809842 -0.22173,0.465457 -1.77476,3.64963 -3.45117,7.075939 -6.4244,13.130445 -6.04071,25.08538 1.26049,39.274499 l 4.03018,7.832241 -3.54376,5.860751 c -1.94907,3.223413 -3.95826,5.998919 -4.46488,6.16779 -0.50661,0.16887 -2.86314,-1.769144 -5.23673,-4.306702 z"
         id="path1027"
         inkscape:connector-curvature="0" />
    </g>
    <rect
       y="-108.50439"
       x="-169.99026"
       height="1001.8575"
       width="614.8584"
       id="rect1146"
       style="fill:#000000;fill-opacity:0;stroke-width:3.77953;stroke-dashoffset:37.7953" />
  </g>
</svg>
