<?xml version="1.0" encoding="UTF-8" standalone="no"?>
<svg
   xmlns:osb="http://www.openswatchbook.org/uri/2009/osb"
   xmlns:dc="http://purl.org/dc/elements/1.1/"
   xmlns:cc="http://creativecommons.org/ns#"
   xmlns:rdf="http://www.w3.org/1999/02/22-rdf-syntax-ns#"
   xmlns:svg="http://www.w3.org/2000/svg"
   xmlns="http://www.w3.org/2000/svg"
   xmlns:sodipodi="http://sodipodi.sourceforge.net/DTD/sodipodi-0.dtd"
   xmlns:inkscape="http://www.inkscape.org/namespaces/inkscape"
   width="210mm"
   height="297mm"
   viewBox="0 0 210 297"
   version="1.1"
   id="svg473"
   inkscape:version="1.0rc1 (09960d6, 2020-04-09)"
   sodipodi:docname="volleyball.svg">
  <defs
     id="defs467">
    <linearGradient
       id="linearGradient1302"
       osb:paint="solid">
      <stop
         style="stop-color:#000000;stop-opacity:1;"
         offset="0"
         id="stop1300" />
    </linearGradient>
  </defs>
  <sodipodi:namedview
     id="base"
     pagecolor="#ffffff"
     bordercolor="#666666"
     borderopacity="1.0"
     inkscape:pageopacity="0.0"
     inkscape:pageshadow="2"
     inkscape:zoom="1.3256101"
     inkscape:cx="381.04494"
     inkscape:cy="414.81261"
     inkscape:document-units="mm"
     inkscape:current-layer="layer1"
     inkscape:document-rotation="0"
     showgrid="false"
     inkscape:window-width="1440"
     inkscape:window-height="788"
     inkscape:window-x="0"
     inkscape:window-y="23"
     inkscape:window-maximized="0" />
  <metadata
     id="metadata470">
    <rdf:RDF>
      <cc:Work
         rdf:about="">
        <dc:format>image/svg+xml</dc:format>
        <dc:type
           rdf:resource="http://purl.org/dc/dcmitype/StillImage" />
        <dc:title />
      </cc:Work>
    </rdf:RDF>
  </metadata>
  <g
     inkscape:label="Layer 1"
     inkscape:groupmode="layer"
     id="layer1">
    <path
       sodipodi:nodetypes="cc"
       inkscape:connector-curvature="0"
       id="path1418"
       d="M 93.04466,148.85145 C 61.863721,124.85829 67.191021,78.404684 81.52916,62.598959"
       style="fill:none;stroke:#000000;stroke-width:0.997741;stroke-linecap:butt;stroke-linejoin:miter;stroke-miterlimit:4;stroke-dasharray:none;stroke-opacity:1" />
    <path
       style="fill:none;stroke:#000000;stroke-width:1.00613;stroke-linecap:butt;stroke-linejoin:miter;stroke-miterlimit:4;stroke-dasharray:none;stroke-opacity:1"
       d="M 69.601337,164.28726 C 38.422755,139.88706 45.263772,94.442491 55.563175,78.368626"
       id="path1420"
       inkscape:connector-curvature="0"
       sodipodi:nodetypes="cc" />
    <ellipse
       style="fill:#ffffff;fill-opacity:0;stroke:#000000;stroke-width:1.00599;stroke-miterlimit:4;stroke-dasharray:none;stroke-opacity:1"
       id="path1410"
       cx="105.27128"
       cy="129.13179"
       rx="71.219254"
       ry="70.765961" />
    <path
       style="fill:none;stroke:#000000;stroke-width:1;stroke-linecap:butt;stroke-linejoin:miter;stroke-miterlimit:4;stroke-dasharray:none;stroke-opacity:1"
       d="M 105.45996,129.42813 C 83.870802,100.782 91.947182,74.041352 105.77953,58.162763"
       id="path1412"
       inkscape:connector-curvature="0"
       sodipodi:nodetypes="cc" />
    <path
       sodipodi:nodetypes="cc"
       inkscape:connector-curvature="0"
       id="path1414"
       d="m 105.45996,129.42813 c -14.0137,33.01982 -41.209966,39.3958 -61.877406,35.35593"
       style="fill:none;stroke:#000000;stroke-width:1;stroke-linecap:butt;stroke-linejoin:miter;stroke-miterlimit:4;stroke-dasharray:none;stroke-dashoffset:10;stroke-opacity:1" />
    <path
       sodipodi:nodetypes="cc"
       inkscape:connector-curvature="0"
       id="path1416"
       d="m 105.45996,129.42813 c 35.60285,-4.37369 54.72274,15.99098 61.55783,35.90944"
       style="fill:none;stroke:#000000;stroke-width:1;stroke-linecap:butt;stroke-linejoin:miter;stroke-miterlimit:4;stroke-dasharray:none;stroke-opacity:1" />
    <g
       id="g1430"
       transform="rotate(120,105.4939,129.17901)">
      <path
         sodipodi:nodetypes="cc"
         inkscape:connector-curvature="0"
         id="path1426"
         d="M 93.572954,148.85053 C 62.394372,124.74676 67.721269,78.079004 82.058324,62.200415"
         style="fill:none;stroke:#000000;stroke-width:1;stroke-linecap:butt;stroke-linejoin:miter;stroke-miterlimit:4;stroke-dasharray:none;stroke-opacity:1" />
      <path
         style="fill:none;stroke:#000000;stroke-width:1;stroke-linecap:butt;stroke-linejoin:miter;stroke-miterlimit:4;stroke-dasharray:none;stroke-opacity:1"
         d="M 70.130504,163.24346 C 38.951922,139.13969 45.792939,94.247215 56.092342,78.368626"
         id="path1428"
         inkscape:connector-curvature="0"
         sodipodi:nodetypes="cc" />
    </g>
    <g
       transform="rotate(-120,105.24642,129.22766)"
       id="g1436">
      <path
         style="fill:none;stroke:#000000;stroke-width:1;stroke-linecap:butt;stroke-linejoin:miter;stroke-miterlimit:4;stroke-dasharray:none;stroke-opacity:1"
         d="M 93.572954,148.85053 C 62.394372,124.74676 67.721269,78.079004 82.058324,62.200415"
         id="path1432"
         inkscape:connector-curvature="0"
         sodipodi:nodetypes="cc" />
      <path
         sodipodi:nodetypes="cc"
         inkscape:connector-curvature="0"
         id="path1434"
         d="M 70.130504,163.24346 C 38.951922,139.13969 45.792939,94.247215 56.092342,78.368626"
         style="fill:none;stroke:#000000;stroke-width:1;stroke-linecap:butt;stroke-linejoin:miter;stroke-miterlimit:4;stroke-dasharray:none;stroke-opacity:1" />
    </g>
    <path
       style="fill:#ffffff;fill-opacity:0;stroke:none;stroke-width:3.73039375;stroke-miterlimit:4;stroke-dasharray:none;stroke-dashoffset:37.7953;stroke-opacity:1"
       d="M 344.17014,551.37308 C 280.62265,495.81605 254.41596,398.14416 278.25218,305.69806 283.88634,283.8466 294.61701,259.64279 304.8191,245.7744 l 4.75097,-6.45831 10.76567,-3.3112 c 19.41214,-5.97058 39.4707,-9.38414 66.27128,-11.278 l 6.1536,-0.43484 -4.29065,5.58049 c -19.1145,24.86065 -32.63273,54.76865 -39.23212,86.79796 -2.91299,14.13785 -3.66159,47.03578 -1.41985,62.39686 4.78668,32.79978 18.00271,66.00215 38.47588,96.66221 l 9.51164,14.24436 -6.87118,13.88628 c -9.37284,18.94201 -21.40375,37.60536 -33.35255,51.73923 l -2.79535,3.30654 z"
       id="path1438"
       inkscape:connector-curvature="0"
       transform="scale(0.26458333)" />
    <path
       style="fill:#024fa1;fill-opacity:0;stroke:none;stroke-width:3.68205;stroke-miterlimit:4;stroke-dasharray:none;stroke-dashoffset:37.7953;stroke-opacity:1"
       d="M 344.17014,551.37308 C 280.62265,495.81605 254.41596,398.14416 278.25218,305.69806 283.88634,283.8466 294.61701,259.64279 304.8191,245.7744 l 4.75097,-6.45831 10.76567,-3.3112 c 19.41214,-5.97058 39.4707,-9.38414 66.27128,-11.278 l 6.1536,-0.43484 -4.29065,5.58049 c -19.1145,24.86065 -32.63273,54.76865 -39.23212,86.79796 -2.91299,14.13785 -3.66159,47.03578 -1.41985,62.39686 4.78668,32.79978 18.00271,66.00215 38.47588,96.66221 l 9.51164,14.24436 -6.87118,13.88628 c -9.37284,18.94201 -21.40375,37.60536 -33.35255,51.73923 l -2.79535,3.30654 z"
       id="path1440"
       inkscape:connector-curvature="0"
       transform="scale(0.26458333)" />
    <path
       style="fill:#024fa1;fill-opacity:0;stroke:none;stroke-width:3.68205;stroke-miterlimit:4;stroke-dasharray:none;stroke-dashoffset:37.7953;stroke-opacity:1"
       d="M 344.17014,551.37308 C 280.62265,495.81605 254.41596,398.14416 278.25218,305.69806 283.88634,283.8466 294.61701,259.64279 304.8191,245.7744 l 4.75097,-6.45831 10.76567,-3.3112 c 19.41214,-5.97058 39.4707,-9.38414 66.27128,-11.278 l 6.1536,-0.43484 -4.29065,5.58049 c -19.1145,24.86065 -32.63273,54.76865 -39.23212,86.79796 -2.91299,14.13785 -3.66159,47.03578 -1.41985,62.39686 4.78668,32.79978 18.00271,66.00215 38.47588,96.66221 l 9.51164,14.24436 -6.87118,13.88628 c -9.37284,18.94201 -21.40375,37.60536 -33.35255,51.73923 l -2.79535,3.30654 z"
       id="path1442"
       inkscape:connector-curvature="0"
       transform="scale(0.26458333)" />
    <path
       style="fill:#024fa1;fill-opacity:0;stroke:none;stroke-width:3.68205;stroke-miterlimit:4;stroke-dasharray:none;stroke-dashoffset:37.7953;stroke-opacity:1"
       d="M 344.17014,551.37308 C 280.62265,495.81605 254.41596,398.14416 278.25218,305.69806 283.88634,283.8466 294.61701,259.64279 304.8191,245.7744 l 4.75097,-6.45831 10.76567,-3.3112 c 19.41214,-5.97058 39.4707,-9.38414 66.27128,-11.278 l 6.1536,-0.43484 -4.29065,5.58049 c -19.1145,24.86065 -32.63273,54.76865 -39.23212,86.79796 -2.91299,14.13785 -3.66159,47.03578 -1.41985,62.39686 4.78668,32.79978 18.00271,66.00215 38.47588,96.66221 l 9.51164,14.24436 -6.87118,13.88628 c -9.37284,18.94201 -21.40375,37.60536 -33.35255,51.73923 l -2.79535,3.30654 z"
       id="path1444"
       inkscape:connector-curvature="0"
       transform="scale(0.26458333)" />
    <path
       style="fill:#024fa1;fill-opacity:0;stroke:none;stroke-width:3.68205;stroke-miterlimit:4;stroke-dasharray:none;stroke-dashoffset:37.7953;stroke-opacity:1"
       d="M 344.17014,551.37308 C 280.62265,495.81605 254.41596,398.14416 278.25218,305.69806 283.88634,283.8466 294.61701,259.64279 304.8191,245.7744 l 4.75097,-6.45831 10.76567,-3.3112 c 19.41214,-5.97058 39.4707,-9.38414 66.27128,-11.278 l 6.1536,-0.43484 -4.29065,5.58049 c -19.1145,24.86065 -32.63273,54.76865 -39.23212,86.79796 -2.91299,14.13785 -3.66159,47.03578 -1.41985,62.39686 4.78668,32.79978 18.00271,66.00215 38.47588,96.66221 l 9.51164,14.24436 -6.87118,13.88628 c -9.37284,18.94201 -21.40375,37.60536 -33.35255,51.73923 l -2.79535,3.30654 z"
       id="path1446"
       inkscape:connector-curvature="0"
       transform="scale(0.26458333)" />
    <path
       style="fill:#024fa1;fill-opacity:0;stroke:none;stroke-width:3.68205;stroke-miterlimit:4;stroke-dasharray:none;stroke-dashoffset:37.7953;stroke-opacity:1"
       d="M 628.71089,611.24912 C 601.27671,543.912 543.91735,498.50902 472.24816,487.40057 c -13.07997,-2.02734 -45.0824,-2.88535 -64.63359,-1.73287 l -8.3723,0.49352 -8.42749,-12.52094 c -4.63512,-6.88652 -11.1629,-17.76864 -14.50617,-24.18249 -6.28951,-12.06598 -15.10246,-32.62944 -15.10246,-35.2389 0,-1.03197 3.70483,-2.68624 12.09124,-5.39893 24.26618,-7.8492 43.62892,-10.49844 71.23588,-9.74659 37.23019,1.01392 68.23517,9.2482 105.28135,27.96053 41.07365,20.74664 78.70935,54.23013 99.11499,88.18001 5.23336,8.70699 10.3376,20.67286 10.34317,24.24748 0.0175,11.21754 -15.12667,54.47278 -25.30648,72.28125 l -2.95104,5.16254 z"
       id="path1448"
       inkscape:connector-curvature="0"
       transform="scale(0.26458333)" />
    <path
       style="fill:#024fa1;fill-opacity:0;stroke:none;stroke-width:3.68205;stroke-miterlimit:4;stroke-dasharray:none;stroke-dashoffset:37.7953;stroke-opacity:1"
       d="M 657.99395,521.44681 C 629.98514,466.71734 563.61824,417.80472 494.28618,400.79368 c -22.08765,-5.41934 -30.82018,-6.40284 -56.58442,-6.37281 -18.01042,0.021 -26.04486,0.44014 -33.51698,1.74853 -12.66203,2.21716 -26.90707,5.84029 -36.98793,9.40762 l -7.98939,2.82722 -1.45293,-5.0448 c -5.54849,-19.26509 -8.18093,-45.23634 -6.49098,-64.03881 0.59681,-6.64008 1.7867,-15.93223 2.6442,-20.64923 l 1.5591,-8.57635 8.54513,-3.09724 c 35.86977,-13.00125 75.63367,-15.6956 114.61118,-7.76592 60.69326,12.34758 126.47282,53.64922 163.29289,102.52827 13.45216,17.8579 15.49505,22.65824 19.53648,45.90649 1.97297,11.34943 2.22597,16.08072 2.19039,40.96217 -0.0221,15.47185 -0.47808,30.79565 -1.01321,34.05288 l -0.97298,5.92224 z"
       id="path1450"
       inkscape:connector-curvature="0"
       transform="scale(0.26458333)" />
    <path
       style="fill:#024fa1;fill-opacity:1;stroke:#014fa2;stroke-width:2.26771657;stroke-miterlimit:4;stroke-dasharray:none;stroke-dashoffset:37.7953;stroke-opacity:1"
       d="m 230.12006,689.91348 c -5.92752,-0.76956 -6.60884,-1.15335 -14.23391,-8.01792 -8.45334,-7.61025 -21.63067,-21.95475 -29.17498,-31.75914 -6.52708,-8.48244 -16.05601,-22.61172 -15.57438,-23.09334 0.227,-0.22701 5.34509,0.13193 11.37352,0.79765 17.22458,1.90209 48.77027,0.72217 63.98681,-2.39332 15.47517,-3.16845 26.40773,-6.51663 39.4049,-12.06806 45.46259,-19.41825 81.95209,-55.70217 106.65091,-106.05004 l 7.6413,-15.5766 4.44168,-0.82166 c 8.1923,-1.5155 54.77107,-0.91125 65.46221,0.84921 5.33193,0.87798 9.96042,1.86233 10.28552,2.18742 0.3251,0.3251 -0.40454,5.33611 -1.62144,11.13558 -13.60674,64.8472 -59.83452,122.27962 -126.43941,157.0857 -41.82012,21.85416 -87.53423,32.22547 -122.20273,27.72452 z"
       id="path1458"
       inkscape:connector-curvature="0"
       transform="scale(0.26458333)" />
    <path
       transform="scale(0.26458333)"
       style="fill:#024fa1;fill-opacity:1;stroke:#014fa2;stroke-width:2.26771657;stroke-miterlimit:4;stroke-dasharray:none;stroke-dashoffset:37.7953;stroke-opacity:1"
       d="m 374.16778,752.08988 c -9.22505,-0.88982 -29.98084,-3.97049 -29.53519,-4.38376 0.15807,-0.14659 5.18144,-0.97943 11.16304,-1.85077 14.57059,-2.1225 34.74555,-7.29896 49.9597,-12.81856 78.32509,-28.4159 136.63578,-82.23163 161.08234,-148.66508 2.82635,-7.68058 7.86177,-26.62063 10.2342,-38.49456 0.4656,-2.3303 0.84741,-2.08314 6.86156,4.44168 17.36343,18.83776 33.87638,45.32368 42.26413,67.78945 l 1.72449,4.61888 -5.67171,8.70616 c -14.26197,21.89232 -37.39398,47.52624 -56.72688,62.86234 -48.54132,38.50609 -108.72426,59.32277 -169.77091,58.72205 -7.32877,-0.0722 -17.04192,-0.48965 -21.58477,-0.92783 z"
       id="path1460"
       inkscape:connector-curvature="0" />
    <path
       style="fill:#feda00;fill-opacity:1;stroke:#ffdb00;stroke-width:1.13385828;stroke-miterlimit:4;stroke-dasharray:none;stroke-dashoffset:37.7953;stroke-opacity:1"
       d="m 310.8671,738.54241 c -16.97502,-6.0912 -25.57731,-9.80783 -38.49457,-16.63161 -9.99876,-5.28205 -31.90313,-19.33074 -38.00104,-24.37255 l -2.96112,-2.44827 9.92142,0.54137 c 17.1165,0.934 43.4687,-2.77607 64.5617,-9.08948 31.20848,-9.34113 65.31733,-26.89292 90.8461,-46.74777 35.7818,-27.82907 62.8391,-63.46044 77.65785,-102.26646 3.39875,-8.90033 9.47439,-30.90698 10.68201,-38.69133 l 0.63675,-4.10459 8.78458,2.3509 c 25.8882,6.92814 51.61581,20.0659 71.26944,36.39362 7.68925,6.38802 7.6339,6.1471 4.66257,20.29723 -10.26884,48.9024 -38.35453,93.16064 -80.60051,127.01262 -44.36767,35.5521 -104.90987,59.97344 -153.79566,62.03764 l -11.84448,0.50014 z"
       id="path1462"
       inkscape:connector-curvature="0"
       transform="scale(0.26458333)" />
    <path
       style="fill:#feda00;fill-opacity:1;stroke:#ffdb00;stroke-width:1.13385828;stroke-miterlimit:4;stroke-dasharray:none;stroke-dashoffset:37.7953;stroke-opacity:1"
       d="M 657.99395,521.44681 C 629.98514,466.71734 563.61824,417.80472 494.28618,400.79368 c -22.08765,-5.41934 -30.82018,-6.40284 -56.58442,-6.37281 -18.01042,0.021 -26.04486,0.44014 -33.51698,1.74853 -12.66203,2.21716 -26.90707,5.84029 -36.98793,9.40762 l -7.98939,2.82722 -1.45293,-5.0448 c -5.54849,-19.26509 -8.18093,-45.23634 -6.49098,-64.03881 0.59681,-6.64008 1.7867,-15.93223 2.6442,-20.64923 l 1.5591,-8.57635 8.54513,-3.09724 c 35.86977,-13.00125 75.63367,-15.6956 114.61118,-7.76592 60.69326,12.34758 126.47282,53.64922 163.29289,102.52827 13.45216,17.8579 15.49505,22.65824 19.53648,45.90649 1.97297,11.34943 2.22597,16.08072 2.19039,40.96217 -0.0221,15.47185 -0.47808,30.79565 -1.01321,34.05288 l -0.97298,5.92224 z"
       id="path1464"
       inkscape:connector-curvature="0"
       transform="scale(0.26458333)" />
    <path
       transform="scale(0.26458333)"
       style="fill:#024ea2;fill-opacity:1;stroke:#014fa2;stroke-width:2.26771657;stroke-miterlimit:4;stroke-dasharray:none;stroke-dashoffset:37.7953;stroke-opacity:1"
       d="M 628.71089,611.24912 C 601.27671,543.912 543.91735,498.50902 472.24816,487.40057 c -13.07997,-2.02734 -45.0824,-2.88535 -64.63359,-1.73287 l -8.3723,0.49352 -8.42749,-12.52094 c -4.63512,-6.88652 -11.1629,-17.76864 -14.50617,-24.18249 -6.28951,-12.06598 -15.10246,-32.62944 -15.10246,-35.2389 0,-1.03197 3.70483,-2.68624 12.09124,-5.39893 24.26618,-7.8492 43.62892,-10.49844 71.23588,-9.74659 37.23019,1.01392 68.23517,9.2482 105.28135,27.96053 41.07365,20.74664 78.70935,54.23013 99.11499,88.18001 5.23336,8.70699 10.3376,20.67286 10.34317,24.24748 0.0175,11.21754 -15.12667,54.47278 -25.30648,72.28125 l -2.95104,5.16254 z"
       id="path1474"
       inkscape:connector-curvature="0" />
    <path
       transform="scale(0.26458333)"
       inkscape:connector-curvature="0"
       id="path869"
       d="m 256.36865,612.30543 c -35.20526,-29.80524 -61.00382,-75.1649 -71.10503,-125.01857 -4.15857,-20.52431 -5.18988,-31.7561 -5.20002,-56.63249 -0.0101,-24.76473 0.90492,-36.00503 4.54434,-55.82335 5.01922,-27.33194 15.08712,-57.11342 24.50224,-72.47907 5.47763,-8.9396 29.34886,-28.27319 50.9975,-41.30347 11.32226,-6.81484 37.73889,-19.74088 40.34397,-19.74088 0.30098,0 -1.29168,2.66956 -3.53925,5.93235 -27.40796,39.78809 -39.90985,106.70881 -31.23487,167.19548 8.42076,58.71411 36.05285,110.10119 77.64893,144.40281 2.69687,2.22394 4.99998,4.28541 5.11802,4.58104 0.31551,0.79018 -12.52522,12.82224 -20.48183,19.19193 -18.14952,14.52965 -41.42537,26.89694 -62.54157,33.23057 l -3.59996,1.07978 z"
       style="fill:#ffdb00;stroke:#ffdb00;stroke-width:2.85116;stroke-dashoffset:37.7953;stroke-opacity:1" />
    <path
       transform="scale(0.26458333)"
       inkscape:connector-curvature="0"
       id="path871"
       d="m 649.08669,403.17937 c -0.90497,-1.38609 -4.34036,-5.87038 -7.63419,-9.96508 -29.95239,-37.23504 -78.02068,-71.11905 -125.09977,-88.18459 -28.37398,-10.28519 -53.04208,-14.71894 -81.91257,-14.72264 -25.94858,-0.003 -46.03605,3.2501 -69.02925,11.1802 l -8.46752,2.92035 0.46585,-1.941 c 1.78328,-7.4301 8.17078,-23.65569 13.83086,-35.13326 6.96289,-14.11942 15.13169,-27.17509 23.78974,-38.02165 l 5.05929,-6.33812 12.16603,0.47786 c 47.65038,1.87163 98.08902,19.1667 138.87408,47.61898 44.11616,30.77612 80.49431,77.97449 97.65618,126.70279 2.65068,7.52617 2.74076,9.1426 0.30127,5.40616 z"
       style="fill:#014fa2;stroke:#014fa2;stroke-width:2.85116;stroke-dashoffset:37.7953;stroke-opacity:1;fill-opacity:1" />
  </g>
</svg>
