<?xml version="1.0" encoding="UTF-8" standalone="no"?>
<svg
   xmlns:osb="http://www.openswatchbook.org/uri/2009/osb"
   xmlns:dc="http://purl.org/dc/elements/1.1/"
   xmlns:cc="http://creativecommons.org/ns#"
   xmlns:rdf="http://www.w3.org/1999/02/22-rdf-syntax-ns#"
   xmlns:svg="http://www.w3.org/2000/svg"
   xmlns="http://www.w3.org/2000/svg"
   xmlns:sodipodi="http://sodipodi.sourceforge.net/DTD/sodipodi-0.dtd"
   xmlns:inkscape="http://www.inkscape.org/namespaces/inkscape"
   version="1.1"
   id="svg947"
   width="1120"
   height="1680"
   viewBox="0 0 1120 1680"
   sodipodi:docname="jump.svg"
   inkscape:version="1.0rc1 (09960d6, 2020-04-09)">
  <metadata
     id="metadata953">
    <rdf:RDF>
      <cc:Work
         rdf:about="">
        <dc:format>image/svg+xml</dc:format>
        <dc:type
           rdf:resource="http://purl.org/dc/dcmitype/StillImage" />
        <dc:title />
      </cc:Work>
    </rdf:RDF>
  </metadata>
  <defs
     id="defs951">
    <linearGradient
       osb:paint="solid"
       id="linearGradient1302">
      <stop
         id="stop1300"
         offset="0"
         style="stop-color:#000000;stop-opacity:1;" />
    </linearGradient>
  </defs>
  <sodipodi:namedview
     inkscape:document-rotation="0"
     pagecolor="#ffffff"
     bordercolor="#666666"
     borderopacity="1"
     objecttolerance="10"
     gridtolerance="10"
     guidetolerance="10"
     inkscape:pageopacity="0"
     inkscape:pageshadow="2"
     inkscape:window-width="1440"
     inkscape:window-height="784"
     id="namedview949"
     showgrid="false"
     inkscape:zoom="0.85014826"
     inkscape:cx="368.62416"
     inkscape:cy="616.58501"
     inkscape:window-x="0"
     inkscape:window-y="23"
     inkscape:window-maximized="0"
     inkscape:current-layer="g955" />
  <g
     inkscape:groupmode="layer"
     inkscape:label="Image"
     id="g955">
    <path
       style="fill:#ffe0bd;fill-opacity:1;stroke:none;stroke-width:1px;stroke-linecap:butt;stroke-linejoin:miter;stroke-opacity:1"
       d="m 381.39071,865.15084 1.75602,42.1445 5.26806,28.9743 19.31622,28.9744 10.53612,24.5843 9.65812,30.73026 7.90209,48.2906 -3.51204,7.9021 -16.6822,5.268 -7.90209,0.878 -5.26806,-2.634 -36.87643,-92.19106 -17.5602,-22.8282 -7.90209,-18.4382 -11.41413,-31.6084 -8.78011,-47.4126 15.80419,2.6341 z"
       id="path1520"
       inkscape:connector-curvature="0" />
    <path
       style="fill:#ffe0bd;fill-opacity:1;stroke:none;stroke-width:1px;stroke-linecap:butt;stroke-linejoin:miter;stroke-opacity:1"
       d="m 290.74685,857.05854 -6.04301,33.908 -0.33572,31.8936 7.72162,6.3788 8.05735,11.0788 6.043,14.1004 5.03585,13.0931 6.04301,15.779 -0.33573,8.7288 -1.67861,5.0359 -4.02867,6.04296 -6.04301,5.3715 -7.72163,2.0144 -9.73596,-2.3501 -36.25806,-42.97246 -10.4074,-8.7288 -9.40024,-14.1004 -0.67144,-14.7718 1.00716,-13.4289 -6.37873,-25.8506 -5.70728,-27.1936 0.33572,-3.0215 16.11469,2.3501 9.06451,0.3357 5.03585,-3.6929 9.06451,-2.3501 4.70012,-2.0143 z"
       id="path1522"
       inkscape:connector-curvature="0" />
    <path
       style="fill:#e7e0d8;fill-opacity:1;stroke:none;stroke-width:1px;stroke-linecap:butt;stroke-linejoin:miter;stroke-opacity:1"
       d="m 287.72534,1008.1337 6.04301,7.3859 8.72879,13.7646 9.06452,16.1147 2.01434,6.3788 9.40023,2.6857 8.39307,-9.0645 5.70729,-7.0501 1.34289,-11.7503 -3.69295,-8.0574 -0.33572,-8.0573 -3.02151,-4.0287 -6.37873,-9.40016 -7.72162,-13.7647 -0.33573,8.7288 -5.70728,11.07886 -6.04301,5.3715 -7.72163,2.0144 z"
       id="path1524"
       inkscape:connector-curvature="0" />
    <path
       style="fill:#e7e0d8;fill-opacity:1;stroke:none;stroke-width:1px;stroke-linecap:butt;stroke-linejoin:miter;stroke-opacity:1"
       d="m 402.46295,1080.2633 5.8058,16.035 4.61846,19.2031 0.97231,10.4523 v 7.0492 l 4.86155,15.557 2.18769,1.9446 -0.48615,-8.5077 0.72923,-3.4031 4.61847,-1.9446 21.39079,0.243 3.64616,2.6739 1.94462,4.1323 1.94462,-3.16 -1.45847,-7.2923 -1.70154,-6.0769 0.24308,-2.6739 -2.18769,-3.6461 -4.61847,-8.0216 -2.91693,-13.8554 -2.43077,-13.3692 -0.97231,-9.9662 -2.82606,-6.7875 -3.51204,7.9021 -16.6822,5.268 -7.90209,0.878 z"
       id="path1526"
       inkscape:connector-curvature="0" />
    <path
       style="fill:#9d9c8e;fill-opacity:1;stroke:none;stroke-width:1px;stroke-linecap:butt;stroke-linejoin:miter;stroke-opacity:1"
       d="m 330.24095,1004.6581 18.47387,-3.8892 4.37539,3.6462 3.40309,7.0492 1.21538,5.8339 0.24308,5.3477 -2.91693,10.2092 -4.86154,10.2092 -3.16001,6.5631 -2.91692,6.8062 -0.48616,7.5354 -1.45846,10.2092 -1.94462,11.1816 -3.88923,11.9108 -1.21539,5.1046 -6.07693,7.2923 -4.61847,3.4031 -5.59078,-1.2154 -4.61846,-2.1877 -1.70154,-7.5354 0.24307,-2.9169 -0.24307,-8.0216 v -10.9384 l -1.21539,-6.077 -2.18769,-10.4523 -2.1877,-8.5077 -5.10462,-5.1046 -0.24308,-8.0216 2.1877,-6.0769 1.21538,-2.1877 6.60074,11.5715 2.01434,6.3788 9.40023,2.6857 14.10036,-16.1146 1.34289,-11.7503 -3.69295,-8.0574 -0.33572,-8.0573 z"
       id="path1528"
       inkscape:connector-curvature="0" />
    <path
       style="fill:#d1c8ae;fill-opacity:1;stroke:none;stroke-width:1px;stroke-linecap:butt;stroke-linejoin:miter;stroke-opacity:1"
       d="m 343.6102,1001.7412 2.67385,-4.61846 7.04924,-2.6738 6.56309,4.6185 5.83385,5.59066 3.88924,8.5077 -0.97231,8.9939 -3.16001,8.2646 -4.61846,6.32 -5.10463,6.5631 -4.37539,7.2923 -1.21538,6.5631 -1.21539,13.6123 0.24308,4.6185 -0.48616,8.9939 -1.94461,7.0492 -3.16001,6.5631 -4.86154,7.2923 -4.86155,5.1046 -5.83385,3.6462 -3.64616,-0.9723 4.61847,-3.4031 6.07693,-7.2923 1.21539,-5.1046 3.88923,-11.9108 3.40308,-21.3908 0.48616,-7.5354 2.27843,-7.0072 8.66004,-16.5713 2.91693,-10.2092 -1.45846,-11.1816 -3.40309,-7.0492 -4.37539,-3.6462 z"
       id="path1530"
       inkscape:connector-curvature="0"
       sodipodi:nodetypes="cccccccccccccccccccccccccccccccccc" />
    <path
       style="fill:#9d9c8e;fill-opacity:1;stroke:none;stroke-width:1px;stroke-linecap:butt;stroke-linejoin:miter;stroke-opacity:1"
       d="m 407.64381,1224.0625 0.71289,-9.9804 3.3268,-9.7428 3.08917,-6.1783 v -8.317 l 0.95051,-10.4557 0.71288,-8.5546 0.71289,-7.3665 -0.23763,-9.7427 -1.90103,-7.1289 1.90103,-3.3268 1.80975,5.2911 2.18769,1.9446 -0.48615,-8.5077 0.72923,-3.4031 4.61847,-1.9446 21.39079,0.243 3.64616,2.6739 1.94462,4.1323 1.94462,-3.16 -3.16001,-13.3692 0.24308,-2.6739 -3.5013,-5.4645 4.99019,2.3763 4.51494,4.0397 3.56443,6.6536 2.13865,1.6634 3.3268,4.7525 0.95051,6.1784 -0.71288,6.6536 -3.3268,14.2577 -2.61391,10.4556 -0.47526,11.1686 -1.90102,5.703 -1.6634,8.317 -4.27731,10.2181 -6.17834,7.6041 -11.16854,6.8912 -10.45564,3.0892 -11.64379,-0.7129 z"
       id="path1532"
       inkscape:connector-curvature="0" />
    <path
       style="fill:#d1c8ae;fill-opacity:1;stroke:none;stroke-width:1px;stroke-linecap:butt;stroke-linejoin:miter;stroke-opacity:1"
       d="m 411.92112,1233.0923 -5.46545,-5.9407 -1.18814,-6.1783 3.08917,-6.8912 -0.71289,9.9804 5.70309,4.2773 11.64379,0.7129 10.45564,-3.0892 11.16854,-6.8912 6.17834,-7.6041 4.27731,-10.2181 1.6634,-8.317 1.90102,-5.703 0.47526,-11.1686 5.94071,-24.7133 0.71288,-6.6536 -0.95051,-6.1784 -3.3268,-4.7525 2.13866,-1.1882 4.03968,3.0892 2.37629,6.416 0.23762,7.3664 -1.42577,9.0299 -3.32679,8.7923 -3.08917,7.3665 -1.18814,6.8912 -0.23763,9.5051 1.90102,8.0794 -1.18814,7.6041 -4.27731,7.3665 -3.80205,5.2278 -6.6536,5.7031 -6.89122,4.7525 -9.50514,4.515 -9.02987,0.4752 z"
       id="path1536"
       inkscape:connector-curvature="0" />
    <path
       style="fill:#0a0a08;fill-opacity:1;stroke:none;stroke-width:1px;stroke-linecap:butt;stroke-linejoin:miter;stroke-opacity:1"
       d="m 372.52745,694.24385 -0.8633,5.17978 -2.58989,7.76967 4.89201,3.74096 -0.57553,6.90638 -1.72659,1.72659 0.8633,3.16542 -0.28777,12.37393 -0.8633,4.02872 4.89202,8.92074 0.28777,5.17978 -1.15107,6.04308 2.5899,8.63294 2.87765,18.417 1.15107,2.8777 -0.8633,4.6043 -0.8633,3.1654 1.43883,8.0574 0.8633,8.0575 0.57553,4.6042 -0.57553,4.892 0.57553,9.4963 0.57553,8.0574 v 6.9064 l -0.28777,3.741 2.01436,6.3308 0.57554,6.0431 -4.66173,1.9885 -45.65653,5.2681 -15.80419,-2.6341 -3.51686,0.2695 -8.92074,-5.1798 -7.19415,-8.0574 -9.55139,2.2414 -26.5221,-4.3644 -4.70012,2.0143 -9.06451,2.3501 -5.03585,3.6929 -25.1792,-2.6858 -2.5356,-10.1549 v -16.6904 -19.5681 -10.9351 l 1.15107,-2.5899 2.01436,-14.676 -1.43883,-4.3165 2.30212,-2.8777 -0.86329,-10.35952 1.43883,-3.16543 -1.43883,-10.0718 2.87765,-3.45319 -2.01436,-5.75531 3.16543,-3.16542 -0.8633,-9.78404 2.01436,-3.74095 -0.8633,-6.33085 1.15107,-1.15106 -0.57553,-4.89202 3.74095,-3.16542 1.15106,-13.23723 5.75532,2.87766 24.17232,3.16542 25.03562,1.15106 26.76222,-4.31648 23.30902,-4.02872 18.70477,-2.30213 14.96382,-2.58989 z"
       id="path1538"
       inkscape:connector-curvature="0" />
    <path
       style="fill:#ffe0bd;fill-opacity:1;stroke:none;stroke-width:1px;stroke-linecap:butt;stroke-linejoin:miter;stroke-opacity:1"
       d="m 236.41425,700.86246 24.17232,3.16542 25.03562,1.15106 83.73983,-13.23722 3.16543,2.30213 0.44362,-3.15682 -2.55018,-3.96695 -4.81701,-5.10036 -9.91737,-2.83353 -13.60097,0.28335 h -7.36719 l -2.55018,-1.41677 -2.83353,-1.98347 -3.40025,-2.26683 -9.06731,-3.96695 h -13.60096 l -18.13462,1.41677 -17.85127,7.36719 -11.90085,5.95042 -11.33413,6.80048 -7.65055,3.6836 -4.53365,-0.56671 -1.20212,3.49753 z"
       id="path1540"
       inkscape:connector-curvature="0" />
    <path
       style="fill:#ac1210;fill-opacity:1;stroke:none;stroke-width:1px;stroke-linecap:butt;stroke-linejoin:miter;stroke-opacity:1"
       d="m 372.97107,691.08703 0.9811,-9.75764 1.21303,-10.93666 1.49339,-5.97357 -1.49339,-9.33369 -3.36013,-8.21364 0.74669,-7.09361 -0.74669,-17.17399 13.81386,-14.56056 5.22687,-9.70704 4.48017,-23.89425 -0.37335,-5.22686 5.60021,-4.48017 v -7.8403 l -0.37334,-10.08039 -3.73348,-13.44052 -11.57378,-16.05394 -8.96034,-9.70704 -3.36013,-8.21365 -7.46695,-1.12004 -6.34691,-2.24009 -7.09361,-0.37335 -5.22686,-1.49339 h -4.48017 l -5.97357,-2.24008 -7.8403,-4.10683 -16.80064,-2.24008 -14.18721,-1.12005 -4.10682,1.49339 -15.30726,0.37335 -16.05395,1.49339 -12.69382,0.7467 -10.82708,8.58699 -12.32047,14.18721 -5.60021,16.05395 -0.37335,14.18721 -0.7467,9.70704 -4.48017,8.21365 2.24009,17.17399 3.73347,17.54734 -5.22686,11.20043 -1.49339,5.60021 5.97356,12.32047 4.48017,5.22687 -2.24009,13.44052 -1.49339,9.33369 3.73348,11.20043 1.12004,8.96034 0.7467,8.21365 5.22687,4.85352 0.43469,9.90733 4.53365,0.56671 7.65055,-3.6836 11.33413,-6.80048 11.90085,-5.95042 17.85127,-7.36719 18.13462,-1.41677 h 13.60096 l 9.06731,3.96695 6.23378,4.2503 2.55018,1.41677 20.96816,-0.28335 9.91737,2.83353 4.81701,5.10036 z"
       id="path1542"
       inkscape:connector-curvature="0" />
    <path
       style="fill:#0a0a08;fill-opacity:1;stroke:none;stroke-width:1px;stroke-linecap:butt;stroke-linejoin:miter;stroke-opacity:1"
       d="m 372.55176,499.39951 6.59045,2.98868 7.82138,-0.92016 3.22057,1.84032 0.92017,-2.76048 5.52097,1.38024 2.76049,-3.68065 3.68065,0.46008 7.36131,-2.76049 3.22057,-1.84032 7.82138,0.46008 5.52098,4.14073 10.12179,12.4222 7.82138,8.74155 5.0609,7.3613 1.84033,5.52098 -11.96212,7.3613 -16.56293,10.58187 -9.66171,7.82139 -6.44114,4.60081 -6.65435,1.61641 -0.37334,-17.92069 -3.73348,-13.44052 -11.57378,-16.05394 -8.96034,-9.70704 z"
       id="path1544"
       inkscape:connector-curvature="0" />
    <path
       style="fill:#ffe0bd;fill-opacity:1;stroke:none;stroke-width:1px;stroke-linecap:butt;stroke-linejoin:miter;stroke-opacity:1"
       d="m 451.83508,532.75357 15.64276,-13.34237 16.56294,-13.80244 13.34236,-11.96212 8.74154,-16.10285 -2.76048,-5.52097 -11.96212,-9.20163 -9.20163,-8.74155 -23.92423,-11.50203 -23.46416,-7.82139 -33.58594,-12.4222 -2.30041,-5.06089 -18.40326,-13.80245 -9.20163,-7.82138 -9.66171,-10.58187 -2.76048,-1.38025 v 6.44114 l 0.92016,1.38025 -2.76049,-0.46009 -3.68065,-5.98105 -3.68065,-5.52098 -3.68065,-3.22057 -4.60082,-1.38025 -5.0609,2.76049 -1.84032,4.60082 5.0609,9.66171 11.96211,2.3004 10.58188,7.82139 10.58187,11.04195 7.82138,9.20163 3.22057,11.50204 2.30041,5.52098 17.48309,9.20162 17.94318,10.58188 14.26252,13.34236 10.1218,14.26252 -9.20163,3.68065 -15.18269,4.14074 5.52098,4.14073 17.94317,21.16375 5.0609,7.3613 z"
       id="path1546"
       inkscape:connector-curvature="0" />
    <path
       style="fill:#0a0a08;fill-opacity:1;stroke:none;stroke-width:1px;stroke-linecap:butt;stroke-linejoin:miter;stroke-opacity:1"
       d="m 339.57521,391.96865 11.96211,2.3004 10.58188,7.82139 18.40325,20.24358 3.22057,11.50204 2.30041,5.52098 2.30041,10.58187 -1.84033,13.34236 -5.06089,9.66171 -5.52098,7.3613 -6.90122,9.20163 -10.28252,6.53347 -7.09361,-0.37335 -5.22686,-1.49339 1.43924,-7.42722 5.52098,-7.3613 2.76049,-7.82138 4.60081,-7.36131 5.52098,-2.3004 2.30041,-5.52098 -2.30041,-5.52098 -1.38025,-2.30041 -3.68065,0.46009 -4.60081,-4.14074 -6.90122,0.92017 -1.84033,-7.36131 6.44114,-7.3613 2.30041,-1.38024 v -7.36131 l -1.84033,-6.44114 3.22057,-3.22057 -4.14073,-5.98106 -8.74155,-4.60081 -8.74155,-1.38025 -9.20162,2.30041 -5.52098,1.38025 -3.68065,0.92016 4.14073,-5.52098 4.60081,-5.06089 7.36131,-2.76049 z"
       id="path1548"
       inkscape:connector-curvature="0" />
    <path
       style="fill:#ffe0bd;fill-opacity:1;stroke:none;stroke-width:1px;stroke-linecap:butt;stroke-linejoin:miter;stroke-opacity:1"
       d="m 346.41743,494.17264 1.43924,-7.42722 5.52098,-7.3613 2.76049,-7.82138 4.60081,-7.36131 5.52098,-2.3004 2.30041,-5.52098 -3.68066,-7.82139 -3.68065,0.46009 -4.60081,-4.14074 -6.90122,0.92017 -1.84033,-7.36131 6.44114,-7.3613 2.30041,-1.38024 v -7.36131 l -1.84033,-6.44114 3.22057,-3.22057 -4.14073,-5.98106 -8.74155,-4.60081 -8.74155,-1.38025 -18.40325,4.60082 -3.22057,4.14073 -8.74155,3.68065 -2.76049,10.12179 -7.82138,5.98106 -2.30041,4.60082 -2.30041,16.10285 -1.84032,4.60081 1.84032,11.96212 3.22057,8.28147 -0.99842,11.17568 4.10682,-1.49339 30.98785,3.36013 7.8403,4.10683 5.97357,2.24008 z"
       id="path1550"
       inkscape:connector-curvature="0" />
    <path
       style="fill:#0a0a08;fill-opacity:1;stroke:none;stroke-width:1px;stroke-linecap:butt;stroke-linejoin:miter;stroke-opacity:1"
       d="m 248.97369,488.57243 -10.82708,8.58699 -12.32047,14.18721 -5.60021,16.05395 -1.12005,23.89425 -4.48017,8.21365 -6.6338,7.29111 -7.3613,7.36131 -7.3613,7.3613 -1.84033,-0.92016 3.68065,-4.14074 -3.22057,-7.3613 -6.44114,-6.44114 -8.28146,-8.74155 -11.96212,-4.14073 -9.20163,6.44114 0.92017,-4.60081 5.98105,-5.52098 7.82139,-11.96212 10.12179,-12.4222 7.3613,-11.96212 15.18269,-12.42219 14.26252,-5.0609 21.62383,-4.14073 z"
       id="path1552"
       inkscape:connector-curvature="0" />
    <path
       style="fill:#ffe0bd;fill-opacity:1;stroke:none;stroke-width:1px;stroke-linecap:butt;stroke-linejoin:miter;stroke-opacity:1"
       d="m 118.27603,584.74277 14.72261,-8.28147 12.88228,-11.50203 10.12179,-8.74155 9.20163,-6.44114 11.96212,4.14073 14.7226,15.18269 3.22057,7.3613 -3.68065,4.14074 -13.34236,6.90122 -13.34236,14.26252 -10.58187,8.28147 -11.96212,9.20163 -17.02301,9.20163 -18.86334,9.20162 -25.76456,8.28147 -20.70367,6.44114 -14.26252,4.60081 -0.46008,5.52098 -9.20163,11.96212 -5.0609,2.30041 1.38025,8.28146 v 5.52098 l -8.74155,5.52098 h -9.66171 l -6.44114,-9.20163 -1.84033,-8.28147 -4.14073,-10.12179 -0.46008,-5.98106 10.12179,-10.58187 8.74155,-5.52098 14.26252,-12.88228 16.10285,-9.66171 20.70367,-9.66171 16.10285,-13.34236 11.04195,-8.74155 z"
       id="path1554"
       inkscape:connector-curvature="0" />
    <g
       id="layer1"
       inkscape:label="Layer 1"
       transform="matrix(0.72066051,0,0,0.71338476,109.57029,10.09267)">
      <path
         style="fill:none;stroke:#000000;stroke-width:0.997741;stroke-linecap:butt;stroke-linejoin:miter;stroke-miterlimit:4;stroke-dasharray:none;stroke-opacity:1"
         d="M 93.04466,148.85145 C 61.863721,124.85829 67.191021,78.404684 81.52916,62.598959"
         id="path1418"
         inkscape:connector-curvature="0"
         sodipodi:nodetypes="cc" />
      <path
         sodipodi:nodetypes="cc"
         inkscape:connector-curvature="0"
         id="path1420"
         d="M 69.601337,164.28726 C 38.422755,139.88706 45.263772,94.442491 55.563175,78.368626"
         style="fill:none;stroke:#000000;stroke-width:1.00613;stroke-linecap:butt;stroke-linejoin:miter;stroke-miterlimit:4;stroke-dasharray:none;stroke-opacity:1" />
      <ellipse
         ry="70.765961"
         rx="71.219254"
         cy="129.13179"
         cx="105.27128"
         id="path1410"
         style="fill:#ffffff;fill-opacity:0;stroke:#000000;stroke-width:1.00599;stroke-miterlimit:4;stroke-dasharray:none;stroke-opacity:1" />
      <path
         sodipodi:nodetypes="cc"
         inkscape:connector-curvature="0"
         id="path1412"
         d="M 105.45996,129.42813 C 83.870802,100.782 91.947182,74.041352 105.77953,58.162763"
         style="fill:none;stroke:#000000;stroke-width:1;stroke-linecap:butt;stroke-linejoin:miter;stroke-miterlimit:4;stroke-dasharray:none;stroke-opacity:1" />
      <path
         style="fill:none;stroke:#000000;stroke-width:1;stroke-linecap:butt;stroke-linejoin:miter;stroke-miterlimit:4;stroke-dasharray:none;stroke-dashoffset:10;stroke-opacity:1"
         d="m 105.45996,129.42813 c -14.0137,33.01982 -41.209966,39.3958 -61.877406,35.35593"
         id="path1414"
         inkscape:connector-curvature="0"
         sodipodi:nodetypes="cc" />
      <path
         style="fill:none;stroke:#000000;stroke-width:1;stroke-linecap:butt;stroke-linejoin:miter;stroke-miterlimit:4;stroke-dasharray:none;stroke-opacity:1"
         d="m 105.45996,129.42813 c 35.60285,-4.37369 54.72274,15.99098 61.55783,35.90944"
         id="path1416"
         inkscape:connector-curvature="0"
         sodipodi:nodetypes="cc" />
      <g
         transform="rotate(120,105.4939,129.17901)"
         id="g1430">
        <path
           style="fill:none;stroke:#000000;stroke-width:1;stroke-linecap:butt;stroke-linejoin:miter;stroke-miterlimit:4;stroke-dasharray:none;stroke-opacity:1"
           d="M 93.572954,148.85053 C 62.394372,124.74676 67.721269,78.079004 82.058324,62.200415"
           id="path1426"
           inkscape:connector-curvature="0"
           sodipodi:nodetypes="cc" />
        <path
           sodipodi:nodetypes="cc"
           inkscape:connector-curvature="0"
           id="path1428"
           d="M 70.130504,163.24346 C 38.951922,139.13969 45.792939,94.247215 56.092342,78.368626"
           style="fill:none;stroke:#000000;stroke-width:1;stroke-linecap:butt;stroke-linejoin:miter;stroke-miterlimit:4;stroke-dasharray:none;stroke-opacity:1" />
      </g>
      <g
         id="g1436"
         transform="rotate(-120,105.24642,129.22766)">
        <path
           sodipodi:nodetypes="cc"
           inkscape:connector-curvature="0"
           id="path1432"
           d="M 93.572954,148.85053 C 62.394372,124.74676 67.721269,78.079004 82.058324,62.200415"
           style="fill:none;stroke:#000000;stroke-width:1;stroke-linecap:butt;stroke-linejoin:miter;stroke-miterlimit:4;stroke-dasharray:none;stroke-opacity:1" />
        <path
           style="fill:none;stroke:#000000;stroke-width:1;stroke-linecap:butt;stroke-linejoin:miter;stroke-miterlimit:4;stroke-dasharray:none;stroke-opacity:1"
           d="M 70.130504,163.24346 C 38.951922,139.13969 45.792939,94.247215 56.092342,78.368626"
           id="path1434"
           inkscape:connector-curvature="0"
           sodipodi:nodetypes="cc" />
      </g>
      <path
         transform="scale(0.26458333)"
         inkscape:connector-curvature="0"
         id="path1438"
         d="M 344.17014,551.37308 C 280.62265,495.81605 254.41596,398.14416 278.25218,305.69806 283.88634,283.8466 294.61701,259.64279 304.8191,245.7744 l 4.75097,-6.45831 10.76567,-3.3112 c 19.41214,-5.97058 39.4707,-9.38414 66.27128,-11.278 l 6.1536,-0.43484 -4.29065,5.58049 c -19.1145,24.86065 -32.63273,54.76865 -39.23212,86.79796 -2.91299,14.13785 -3.66159,47.03578 -1.41985,62.39686 4.78668,32.79978 18.00271,66.00215 38.47588,96.66221 l 9.51164,14.24436 -6.87118,13.88628 c -9.37284,18.94201 -21.40375,37.60536 -33.35255,51.73923 l -2.79535,3.30654 z"
         style="fill:#ffffff;fill-opacity:0;stroke:none;stroke-width:3.73039;stroke-miterlimit:4;stroke-dasharray:none;stroke-dashoffset:37.7953;stroke-opacity:1" />
      <path
         transform="scale(0.26458333)"
         inkscape:connector-curvature="0"
         id="path1440"
         d="M 344.17014,551.37308 C 280.62265,495.81605 254.41596,398.14416 278.25218,305.69806 283.88634,283.8466 294.61701,259.64279 304.8191,245.7744 l 4.75097,-6.45831 10.76567,-3.3112 c 19.41214,-5.97058 39.4707,-9.38414 66.27128,-11.278 l 6.1536,-0.43484 -4.29065,5.58049 c -19.1145,24.86065 -32.63273,54.76865 -39.23212,86.79796 -2.91299,14.13785 -3.66159,47.03578 -1.41985,62.39686 4.78668,32.79978 18.00271,66.00215 38.47588,96.66221 l 9.51164,14.24436 -6.87118,13.88628 c -9.37284,18.94201 -21.40375,37.60536 -33.35255,51.73923 l -2.79535,3.30654 z"
         style="fill:#024fa1;fill-opacity:0;stroke:none;stroke-width:3.68205;stroke-miterlimit:4;stroke-dasharray:none;stroke-dashoffset:37.7953;stroke-opacity:1" />
      <path
         transform="scale(0.26458333)"
         inkscape:connector-curvature="0"
         id="path1442"
         d="M 344.17014,551.37308 C 280.62265,495.81605 254.41596,398.14416 278.25218,305.69806 283.88634,283.8466 294.61701,259.64279 304.8191,245.7744 l 4.75097,-6.45831 10.76567,-3.3112 c 19.41214,-5.97058 39.4707,-9.38414 66.27128,-11.278 l 6.1536,-0.43484 -4.29065,5.58049 c -19.1145,24.86065 -32.63273,54.76865 -39.23212,86.79796 -2.91299,14.13785 -3.66159,47.03578 -1.41985,62.39686 4.78668,32.79978 18.00271,66.00215 38.47588,96.66221 l 9.51164,14.24436 -6.87118,13.88628 c -9.37284,18.94201 -21.40375,37.60536 -33.35255,51.73923 l -2.79535,3.30654 z"
         style="fill:#024fa1;fill-opacity:0;stroke:none;stroke-width:3.68205;stroke-miterlimit:4;stroke-dasharray:none;stroke-dashoffset:37.7953;stroke-opacity:1" />
      <path
         transform="scale(0.26458333)"
         inkscape:connector-curvature="0"
         id="path1444"
         d="M 344.17014,551.37308 C 280.62265,495.81605 254.41596,398.14416 278.25218,305.69806 283.88634,283.8466 294.61701,259.64279 304.8191,245.7744 l 4.75097,-6.45831 10.76567,-3.3112 c 19.41214,-5.97058 39.4707,-9.38414 66.27128,-11.278 l 6.1536,-0.43484 -4.29065,5.58049 c -19.1145,24.86065 -32.63273,54.76865 -39.23212,86.79796 -2.91299,14.13785 -3.66159,47.03578 -1.41985,62.39686 4.78668,32.79978 18.00271,66.00215 38.47588,96.66221 l 9.51164,14.24436 -6.87118,13.88628 c -9.37284,18.94201 -21.40375,37.60536 -33.35255,51.73923 l -2.79535,3.30654 z"
         style="fill:#024fa1;fill-opacity:0;stroke:none;stroke-width:3.68205;stroke-miterlimit:4;stroke-dasharray:none;stroke-dashoffset:37.7953;stroke-opacity:1" />
      <path
         transform="scale(0.26458333)"
         inkscape:connector-curvature="0"
         id="path1446"
         d="M 344.17014,551.37308 C 280.62265,495.81605 254.41596,398.14416 278.25218,305.69806 283.88634,283.8466 294.61701,259.64279 304.8191,245.7744 l 4.75097,-6.45831 10.76567,-3.3112 c 19.41214,-5.97058 39.4707,-9.38414 66.27128,-11.278 l 6.1536,-0.43484 -4.29065,5.58049 c -19.1145,24.86065 -32.63273,54.76865 -39.23212,86.79796 -2.91299,14.13785 -3.66159,47.03578 -1.41985,62.39686 4.78668,32.79978 18.00271,66.00215 38.47588,96.66221 l 9.51164,14.24436 -6.87118,13.88628 c -9.37284,18.94201 -21.40375,37.60536 -33.35255,51.73923 l -2.79535,3.30654 z"
         style="fill:#024fa1;fill-opacity:0;stroke:none;stroke-width:3.68205;stroke-miterlimit:4;stroke-dasharray:none;stroke-dashoffset:37.7953;stroke-opacity:1" />
      <path
         transform="scale(0.26458333)"
         inkscape:connector-curvature="0"
         id="path1448"
         d="M 628.71089,611.24912 C 601.27671,543.912 543.91735,498.50902 472.24816,487.40057 c -13.07997,-2.02734 -45.0824,-2.88535 -64.63359,-1.73287 l -8.3723,0.49352 -8.42749,-12.52094 c -4.63512,-6.88652 -11.1629,-17.76864 -14.50617,-24.18249 -6.28951,-12.06598 -15.10246,-32.62944 -15.10246,-35.2389 0,-1.03197 3.70483,-2.68624 12.09124,-5.39893 24.26618,-7.8492 43.62892,-10.49844 71.23588,-9.74659 37.23019,1.01392 68.23517,9.2482 105.28135,27.96053 41.07365,20.74664 78.70935,54.23013 99.11499,88.18001 5.23336,8.70699 10.3376,20.67286 10.34317,24.24748 0.0175,11.21754 -15.12667,54.47278 -25.30648,72.28125 l -2.95104,5.16254 z"
         style="fill:#024fa1;fill-opacity:0;stroke:none;stroke-width:3.68205;stroke-miterlimit:4;stroke-dasharray:none;stroke-dashoffset:37.7953;stroke-opacity:1" />
      <path
         transform="scale(0.26458333)"
         inkscape:connector-curvature="0"
         id="path1450"
         d="M 657.99395,521.44681 C 629.98514,466.71734 563.61824,417.80472 494.28618,400.79368 c -22.08765,-5.41934 -30.82018,-6.40284 -56.58442,-6.37281 -18.01042,0.021 -26.04486,0.44014 -33.51698,1.74853 -12.66203,2.21716 -26.90707,5.84029 -36.98793,9.40762 l -7.98939,2.82722 -1.45293,-5.0448 c -5.54849,-19.26509 -8.18093,-45.23634 -6.49098,-64.03881 0.59681,-6.64008 1.7867,-15.93223 2.6442,-20.64923 l 1.5591,-8.57635 8.54513,-3.09724 c 35.86977,-13.00125 75.63367,-15.6956 114.61118,-7.76592 60.69326,12.34758 126.47282,53.64922 163.29289,102.52827 13.45216,17.8579 15.49505,22.65824 19.53648,45.90649 1.97297,11.34943 2.22597,16.08072 2.19039,40.96217 -0.0221,15.47185 -0.47808,30.79565 -1.01321,34.05288 l -0.97298,5.92224 z"
         style="fill:#024fa1;fill-opacity:0;stroke:none;stroke-width:3.68205;stroke-miterlimit:4;stroke-dasharray:none;stroke-dashoffset:37.7953;stroke-opacity:1" />
      <path
         transform="scale(0.26458333)"
         inkscape:connector-curvature="0"
         id="path1458"
         d="m 230.12006,689.91348 c -5.92752,-0.76956 -6.60884,-1.15335 -14.23391,-8.01792 -8.45334,-7.61025 -21.63067,-21.95475 -29.17498,-31.75914 -6.52708,-8.48244 -16.05601,-22.61172 -15.57438,-23.09334 0.227,-0.22701 5.34509,0.13193 11.37352,0.79765 17.22458,1.90209 48.77027,0.72217 63.98681,-2.39332 15.47517,-3.16845 26.40773,-6.51663 39.4049,-12.06806 45.46259,-19.41825 81.95209,-55.70217 106.65091,-106.05004 l 7.6413,-15.5766 4.44168,-0.82166 c 8.1923,-1.5155 54.77107,-0.91125 65.46221,0.84921 5.33193,0.87798 9.96042,1.86233 10.28552,2.18742 0.3251,0.3251 -0.40454,5.33611 -1.62144,11.13558 -13.60674,64.8472 -59.83452,122.27962 -126.43941,157.0857 -41.82012,21.85416 -87.53423,32.22547 -122.20273,27.72452 z"
         style="fill:#024fa1;fill-opacity:1;stroke:#014fa2;stroke-width:2.26772;stroke-miterlimit:4;stroke-dasharray:none;stroke-dashoffset:37.7953;stroke-opacity:1" />
      <path
         inkscape:connector-curvature="0"
         id="path1460"
         d="m 374.16778,752.08988 c -9.22505,-0.88982 -29.98084,-3.97049 -29.53519,-4.38376 0.15807,-0.14659 5.18144,-0.97943 11.16304,-1.85077 14.57059,-2.1225 34.74555,-7.29896 49.9597,-12.81856 78.32509,-28.4159 136.63578,-82.23163 161.08234,-148.66508 2.82635,-7.68058 7.86177,-26.62063 10.2342,-38.49456 0.4656,-2.3303 0.84741,-2.08314 6.86156,4.44168 17.36343,18.83776 33.87638,45.32368 42.26413,67.78945 l 1.72449,4.61888 -5.67171,8.70616 c -14.26197,21.89232 -37.39398,47.52624 -56.72688,62.86234 -48.54132,38.50609 -108.72426,59.32277 -169.77091,58.72205 -7.32877,-0.0722 -17.04192,-0.48965 -21.58477,-0.92783 z"
         style="fill:#024fa1;fill-opacity:1;stroke:#014fa2;stroke-width:2.26772;stroke-miterlimit:4;stroke-dasharray:none;stroke-dashoffset:37.7953;stroke-opacity:1"
         transform="scale(0.26458333)" />
      <path
         transform="scale(0.26458333)"
         inkscape:connector-curvature="0"
         id="path1462"
         d="m 310.8671,738.54241 c -16.97502,-6.0912 -25.57731,-9.80783 -38.49457,-16.63161 -9.99876,-5.28205 -31.90313,-19.33074 -38.00104,-24.37255 l -2.96112,-2.44827 9.92142,0.54137 c 17.1165,0.934 43.4687,-2.77607 64.5617,-9.08948 31.20848,-9.34113 65.31733,-26.89292 90.8461,-46.74777 35.7818,-27.82907 62.8391,-63.46044 77.65785,-102.26646 3.39875,-8.90033 9.47439,-30.90698 10.68201,-38.69133 l 0.63675,-4.10459 8.78458,2.3509 c 25.8882,6.92814 51.61581,20.0659 71.26944,36.39362 7.68925,6.38802 7.6339,6.1471 4.66257,20.29723 -10.26884,48.9024 -38.35453,93.16064 -80.60051,127.01262 -44.36767,35.5521 -104.90987,59.97344 -153.79566,62.03764 l -11.84448,0.50014 z"
         style="fill:#feda00;fill-opacity:1;stroke:#ffdb00;stroke-width:1.13386;stroke-miterlimit:4;stroke-dasharray:none;stroke-dashoffset:37.7953;stroke-opacity:1" />
      <path
         transform="scale(0.26458333)"
         inkscape:connector-curvature="0"
         id="path1464"
         d="M 657.99395,521.44681 C 629.98514,466.71734 563.61824,417.80472 494.28618,400.79368 c -22.08765,-5.41934 -30.82018,-6.40284 -56.58442,-6.37281 -18.01042,0.021 -26.04486,0.44014 -33.51698,1.74853 -12.66203,2.21716 -26.90707,5.84029 -36.98793,9.40762 l -7.98939,2.82722 -1.45293,-5.0448 c -5.54849,-19.26509 -8.18093,-45.23634 -6.49098,-64.03881 0.59681,-6.64008 1.7867,-15.93223 2.6442,-20.64923 l 1.5591,-8.57635 8.54513,-3.09724 c 35.86977,-13.00125 75.63367,-15.6956 114.61118,-7.76592 60.69326,12.34758 126.47282,53.64922 163.29289,102.52827 13.45216,17.8579 15.49505,22.65824 19.53648,45.90649 1.97297,11.34943 2.22597,16.08072 2.19039,40.96217 -0.0221,15.47185 -0.47808,30.79565 -1.01321,34.05288 l -0.97298,5.92224 z"
         style="fill:#feda00;fill-opacity:1;stroke:#ffdb00;stroke-width:1.13386;stroke-miterlimit:4;stroke-dasharray:none;stroke-dashoffset:37.7953;stroke-opacity:1" />
      <path
         inkscape:connector-curvature="0"
         id="path1474"
         d="M 628.71089,611.24912 C 601.27671,543.912 543.91735,498.50902 472.24816,487.40057 c -13.07997,-2.02734 -45.0824,-2.88535 -64.63359,-1.73287 l -8.3723,0.49352 -8.42749,-12.52094 c -4.63512,-6.88652 -11.1629,-17.76864 -14.50617,-24.18249 -6.28951,-12.06598 -15.10246,-32.62944 -15.10246,-35.2389 0,-1.03197 3.70483,-2.68624 12.09124,-5.39893 24.26618,-7.8492 43.62892,-10.49844 71.23588,-9.74659 37.23019,1.01392 68.23517,9.2482 105.28135,27.96053 41.07365,20.74664 78.70935,54.23013 99.11499,88.18001 5.23336,8.70699 10.3376,20.67286 10.34317,24.24748 0.0175,11.21754 -15.12667,54.47278 -25.30648,72.28125 l -2.95104,5.16254 z"
         style="fill:#024ea2;fill-opacity:1;stroke:#014fa2;stroke-width:2.26772;stroke-miterlimit:4;stroke-dasharray:none;stroke-dashoffset:37.7953;stroke-opacity:1"
         transform="scale(0.26458333)" />
      <path
         style="fill:#ffdb00;stroke:#ffdb00;stroke-width:2.85116;stroke-dashoffset:37.7953;stroke-opacity:1"
         d="m 256.36865,612.30543 c -35.20526,-29.80524 -61.00382,-75.1649 -71.10503,-125.01857 -4.15857,-20.52431 -5.18988,-31.7561 -5.20002,-56.63249 -0.0101,-24.76473 0.90492,-36.00503 4.54434,-55.82335 5.01922,-27.33194 15.08712,-57.11342 24.50224,-72.47907 5.47763,-8.9396 29.34886,-28.27319 50.9975,-41.30347 11.32226,-6.81484 37.73889,-19.74088 40.34397,-19.74088 0.30098,0 -1.29168,2.66956 -3.53925,5.93235 -27.40796,39.78809 -39.90985,106.70881 -31.23487,167.19548 8.42076,58.71411 36.05285,110.10119 77.64893,144.40281 2.69687,2.22394 4.99998,4.28541 5.11802,4.58104 0.31551,0.79018 -12.52522,12.82224 -20.48183,19.19193 -18.14952,14.52965 -41.42537,26.89694 -62.54157,33.23057 l -3.59996,1.07978 z"
         id="path869"
         inkscape:connector-curvature="0"
         transform="scale(0.26458333)" />
      <path
         style="fill:#014fa2;fill-opacity:1;stroke:#014fa2;stroke-width:2.85116;stroke-dashoffset:37.7953;stroke-opacity:1"
         d="m 649.08669,403.17937 c -0.90497,-1.38609 -4.34036,-5.87038 -7.63419,-9.96508 -29.95239,-37.23504 -78.02068,-71.11905 -125.09977,-88.18459 -28.37398,-10.28519 -53.04208,-14.71894 -81.91257,-14.72264 -25.94858,-0.003 -46.03605,3.2501 -69.02925,11.1802 l -8.46752,2.92035 0.46585,-1.941 c 1.78328,-7.4301 8.17078,-23.65569 13.83086,-35.13326 6.96289,-14.11942 15.13169,-27.17509 23.78974,-38.02165 l 5.05929,-6.33812 12.16603,0.47786 c 47.65038,1.87163 98.08902,19.1667 138.87408,47.61898 44.11616,30.77612 80.49431,77.97449 97.65618,126.70279 2.65068,7.52617 2.74076,9.1426 0.30127,5.40616 z"
         id="path871"
         inkscape:connector-curvature="0"
         transform="scale(0.26458333)" />
    </g>
  </g>
</svg>
