<?xml version="1.0" encoding="UTF-8" standalone="no"?>
<svg
   xmlns:osb="http://www.openswatchbook.org/uri/2009/osb"
   xmlns:dc="http://purl.org/dc/elements/1.1/"
   xmlns:cc="http://creativecommons.org/ns#"
   xmlns:rdf="http://www.w3.org/1999/02/22-rdf-syntax-ns#"
   xmlns:svg="http://www.w3.org/2000/svg"
   xmlns="http://www.w3.org/2000/svg"
   xmlns:sodipodi="http://sodipodi.sourceforge.net/DTD/sodipodi-0.dtd"
   xmlns:inkscape="http://www.inkscape.org/namespaces/inkscape"
   width="254.28456mm"
   height="175.19073mm"
   viewBox="0 0 254.28455 175.19074"
   version="1.1"
   id="svg473"
   inkscape:version="1.0rc1 (09960d6, 2020-04-09)"
   sodipodi:docname="volleyballBackground.svg">
  <defs
     id="defs467">
    <linearGradient
       id="linearGradient1302"
       osb:paint="solid">
      <stop
         style="stop-color:#000000;stop-opacity:1;"
         offset="0"
         id="stop1300" />
    </linearGradient>
  </defs>
  <sodipodi:namedview
     id="base"
     pagecolor="#ffffff"
     bordercolor="#666666"
     borderopacity="1.0"
     inkscape:pageopacity="0.0"
     inkscape:pageshadow="2"
     inkscape:zoom="0.56829993"
     inkscape:cx="701.76308"
     inkscape:cy="373.25018"
     inkscape:document-units="mm"
     inkscape:current-layer="layer1"
     inkscape:document-rotation="0"
     showgrid="false"
     inkscape:window-width="1440"
     inkscape:window-height="788"
     inkscape:window-x="0"
     inkscape:window-y="23"
     inkscape:window-maximized="0" />
  <metadata
     id="metadata470">
    <rdf:RDF>
      <cc:Work
         rdf:about="">
        <dc:format>image/svg+xml</dc:format>
        <dc:type
           rdf:resource="http://purl.org/dc/dcmitype/StillImage" />
        <dc:title />
      </cc:Work>
    </rdf:RDF>
  </metadata>
  <g
     inkscape:label="Layer 1"
     inkscape:groupmode="layer"
     id="layer1"
     transform="translate(77.291031,-25.210016)">
    <path
       sodipodi:nodetypes="cc"
       inkscape:connector-curvature="0"
       id="path1418"
       d="M 70.290481,127.68465 C 39.109548,103.6915 44.436848,57.238012 58.774984,41.432279"
       style="fill:none;stroke:#dcdcdc;stroke-width:0.997741;stroke-linecap:butt;stroke-linejoin:miter;stroke-miterlimit:4;stroke-dasharray:none;stroke-opacity:1" />
    <path
       style="fill:none;stroke:#dcdcdc;stroke-width:1.00613;stroke-linecap:butt;stroke-linejoin:miter;stroke-miterlimit:4;stroke-dasharray:none;stroke-opacity:1"
       d="M 46.847163,143.12046 C 15.66858,118.72026 22.509601,73.275831 32.809001,57.201952"
       id="path1420"
       inkscape:connector-curvature="0"
       sodipodi:nodetypes="cc" />
    <ellipse
       style="fill:#ffffff;fill-opacity:0;stroke:#dcdcdc;stroke-width:1.00599;stroke-miterlimit:4;stroke-dasharray:none;stroke-opacity:1"
       id="path1410"
       cx="82.517105"
       cy="107.96509"
       rx="71.219254"
       ry="70.765961" />
    <path
       style="fill:none;stroke:#dcdcdc;stroke-width:1;stroke-linecap:butt;stroke-linejoin:miter;stroke-miterlimit:4;stroke-dasharray:none;stroke-opacity:1"
       d="M 82.705749,108.26133 C 61.116622,79.615335 69.192997,52.874679 83.025319,36.996083"
       id="path1412"
       inkscape:connector-curvature="0"
       sodipodi:nodetypes="cc" />
    <path
       sodipodi:nodetypes="cc"
       inkscape:connector-curvature="0"
       id="path1414"
       d="M 82.705749,108.26133 C 68.69208,141.28115 41.495823,147.65713 20.82838,143.61726"
       style="fill:none;stroke:#dcdcdc;stroke-width:1;stroke-linecap:butt;stroke-linejoin:miter;stroke-miterlimit:4;stroke-dasharray:none;stroke-dashoffset:10;stroke-opacity:1" />
    <path
       sodipodi:nodetypes="cc"
       inkscape:connector-curvature="0"
       id="path1416"
       d="m 82.705749,108.26133 c 35.602751,-4.37368 54.722641,15.99098 61.557731,35.90944"
       style="fill:none;stroke:#dcdcdc;stroke-width:1;stroke-linecap:butt;stroke-linejoin:miter;stroke-miterlimit:4;stroke-dasharray:none;stroke-opacity:1" />
    <path
       style="fill:none;stroke:#dcdcdc;stroke-width:1;stroke-linecap:butt;stroke-linejoin:miter;stroke-miterlimit:4;stroke-dasharray:none;stroke-opacity:1"
       d="M 71.664152,87.852697 C 108.1278,72.903184 145.87981,100.85016 152.46254,121.2057"
       id="path1426"
       inkscape:connector-curvature="0"
       sodipodi:nodetypes="cc" />
    <path
       sodipodi:nodetypes="cc"
       inkscape:connector-curvature="0"
       id="path1428"
       d="M 70.920735,60.354514 C 107.38438,45.404947 142.84189,73.775698 151.44345,90.634472"
       style="fill:none;stroke:#dcdcdc;stroke-width:1;stroke-linecap:butt;stroke-linejoin:miter;stroke-miterlimit:4;stroke-dasharray:none;stroke-opacity:1" />
    <path
       sodipodi:nodetypes="cc"
       inkscape:connector-curvature="0"
       id="path1432"
       d="m 105.32275,108.35894 c -5.28519,39.05333 -48.363964,57.77398 -69.283747,53.29702"
       style="fill:none;stroke:#dcdcdc;stroke-width:1;stroke-linecap:butt;stroke-linejoin:miter;stroke-miterlimit:4;stroke-dasharray:none;stroke-opacity:1" />
    <path
       style="fill:none;stroke:#dcdcdc;stroke-width:1;stroke-linecap:butt;stroke-linejoin:miter;stroke-miterlimit:4;stroke-dasharray:none;stroke-opacity:1"
       d="m 129.50861,121.46424 c -5.28518,39.05332 -47.583605,55.57507 -66.48455,54.59482"
       id="path1434"
       inkscape:connector-curvature="0"
       sodipodi:nodetypes="cc" />
    <path
       style="fill:#ffffff;fill-opacity:0;stroke:none;stroke-width:0.986999;stroke-miterlimit:4;stroke-dasharray:none;stroke-dashoffset:37.7953;stroke-opacity:1"
       d="M 68.3075,124.71733 C 51.493906,110.01786 44.560045,84.175618 50.866719,59.71594 52.357423,53.934403 55.196575,47.530479 57.89588,43.861129 l 1.257024,-1.708761 2.848412,-0.876088 c 5.136123,-1.579716 10.443293,-2.482887 17.534261,-2.983971 l 1.628131,-0.115052 -1.135234,1.476505 c -5.05736,6.577717 -8.634049,14.490878 -10.38014,22.9653 -0.770727,3.740639 -0.968794,12.44489 -0.375667,16.509176 1.266471,8.678232 4.763213,17.462972 10.18006,25.575082 l 2.516608,3.76881 -1.817991,3.67408 c -2.479885,5.01174 -5.663057,9.94975 -8.824509,13.68934 l -0.739607,0.87486 z"
       id="path1438"
       inkscape:connector-curvature="0" />
    <path
       style="fill:#024fa1;fill-opacity:0;stroke:none;stroke-width:0.974209;stroke-miterlimit:4;stroke-dasharray:none;stroke-dashoffset:37.7953;stroke-opacity:1"
       d="M 68.3075,124.71733 C 51.493906,110.01786 44.560045,84.175618 50.866719,59.71594 52.357423,53.934403 55.196575,47.530479 57.89588,43.861129 l 1.257024,-1.708761 2.848412,-0.876088 c 5.136123,-1.579716 10.443293,-2.482887 17.534261,-2.983971 l 1.628131,-0.115052 -1.135234,1.476505 c -5.05736,6.577717 -8.634049,14.490878 -10.38014,22.9653 -0.770727,3.740639 -0.968794,12.44489 -0.375667,16.509176 1.266471,8.678232 4.763213,17.462972 10.18006,25.575082 l 2.516608,3.76881 -1.817991,3.67408 c -2.479885,5.01174 -5.663057,9.94975 -8.824509,13.68934 l -0.739607,0.87486 z"
       id="path1440"
       inkscape:connector-curvature="0" />
    <path
       style="fill:#024fa1;fill-opacity:0;stroke:none;stroke-width:0.974209;stroke-miterlimit:4;stroke-dasharray:none;stroke-dashoffset:37.7953;stroke-opacity:1"
       d="M 68.3075,124.71733 C 51.493906,110.01786 44.560045,84.175618 50.866719,59.71594 52.357423,53.934403 55.196575,47.530479 57.89588,43.861129 l 1.257024,-1.708761 2.848412,-0.876088 c 5.136123,-1.579716 10.443293,-2.482887 17.534261,-2.983971 l 1.628131,-0.115052 -1.135234,1.476505 c -5.05736,6.577717 -8.634049,14.490878 -10.38014,22.9653 -0.770727,3.740639 -0.968794,12.44489 -0.375667,16.509176 1.266471,8.678232 4.763213,17.462972 10.18006,25.575082 l 2.516608,3.76881 -1.817991,3.67408 c -2.479885,5.01174 -5.663057,9.94975 -8.824509,13.68934 l -0.739607,0.87486 z"
       id="path1442"
       inkscape:connector-curvature="0" />
    <path
       style="fill:#024fa1;fill-opacity:0;stroke:none;stroke-width:0.974209;stroke-miterlimit:4;stroke-dasharray:none;stroke-dashoffset:37.7953;stroke-opacity:1"
       d="M 68.3075,124.71733 C 51.493906,110.01786 44.560045,84.175618 50.866719,59.71594 52.357423,53.934403 55.196575,47.530479 57.89588,43.861129 l 1.257024,-1.708761 2.848412,-0.876088 c 5.136123,-1.579716 10.443293,-2.482887 17.534261,-2.983971 l 1.628131,-0.115052 -1.135234,1.476505 c -5.05736,6.577717 -8.634049,14.490878 -10.38014,22.9653 -0.770727,3.740639 -0.968794,12.44489 -0.375667,16.509176 1.266471,8.678232 4.763213,17.462972 10.18006,25.575082 l 2.516608,3.76881 -1.817991,3.67408 c -2.479885,5.01174 -5.663057,9.94975 -8.824509,13.68934 l -0.739607,0.87486 z"
       id="path1444"
       inkscape:connector-curvature="0" />
    <path
       style="fill:#024fa1;fill-opacity:0;stroke:none;stroke-width:0.974209;stroke-miterlimit:4;stroke-dasharray:none;stroke-dashoffset:37.7953;stroke-opacity:1"
       d="M 68.3075,124.71733 C 51.493906,110.01786 44.560045,84.175618 50.866719,59.71594 52.357423,53.934403 55.196575,47.530479 57.89588,43.861129 l 1.257024,-1.708761 2.848412,-0.876088 c 5.136123,-1.579716 10.443293,-2.482887 17.534261,-2.983971 l 1.628131,-0.115052 -1.135234,1.476505 c -5.05736,6.577717 -8.634049,14.490878 -10.38014,22.9653 -0.770727,3.740639 -0.968794,12.44489 -0.375667,16.509176 1.266471,8.678232 4.763213,17.462972 10.18006,25.575082 l 2.516608,3.76881 -1.817991,3.67408 c -2.479885,5.01174 -5.663057,9.94975 -8.824509,13.68934 l -0.739607,0.87486 z"
       id="path1446"
       inkscape:connector-curvature="0" />
    <path
       style="fill:#024fa1;fill-opacity:0;stroke:none;stroke-width:0.974209;stroke-miterlimit:4;stroke-dasharray:none;stroke-dashoffset:37.7953;stroke-opacity:1"
       d="m 143.59211,140.55953 c -7.25863,-17.81628 -22.43496,-29.82915 -41.39743,-32.76826 -3.460731,-0.5364 -11.927993,-0.76342 -17.100883,-0.45849 l -2.215158,0.13057 -2.229768,-3.31282 c -1.226364,-1.82206 -2.953492,-4.701275 -3.838069,-6.398256 -1.664101,-3.192442 -3.995856,-8.633163 -3.995856,-9.32358 0,-0.273037 0.980234,-0.710724 3.199142,-1.428451 6.420394,-2.076758 11.543424,-2.777705 18.847722,-2.578775 9.85046,0.268267 18.05386,2.446905 27.85566,7.397849 10.8674,5.48919 20.82518,14.348323 26.22417,23.330893 1.38466,2.30373 2.73516,5.4697 2.73663,6.41548 0.005,2.96798 -4.00226,14.41259 -6.69567,19.12441 l -0.78079,1.36593 z"
       id="path1448"
       inkscape:connector-curvature="0" />
    <path
       style="fill:#024fa1;fill-opacity:0;stroke:none;stroke-width:0.974209;stroke-miterlimit:4;stroke-dasharray:none;stroke-dashoffset:37.7953;stroke-opacity:1"
       d="m 151.33992,116.79933 c -7.41067,-14.48049 -24.97024,-27.421889 -43.31435,-31.922695 -5.84402,-1.433861 -8.154507,-1.694081 -14.971248,-1.686131 -4.765233,0.006 -6.891001,0.11645 -8.867992,0.462627 -3.350139,0.586617 -7.119118,1.545231 -9.786343,2.489088 l -2.113858,0.748024 -0.384427,-1.334761 c -1.468034,-5.097193 -2.164538,-11.968744 -1.717401,-16.943564 0.1579,-1.75686 0.472727,-4.215405 0.699607,-5.463449 l 0.412517,-2.269158 2.260895,-0.819484 c 9.490509,-3.439912 20.011319,-4.152786 30.32408,-2.054728 16.05842,3.266962 33.4626,14.194698 43.20457,27.127246 3.55922,4.724873 4.09973,5.994954 5.16903,12.146022 0.52201,3.002843 0.58895,4.254663 0.57954,10.837873 -0.006,4.09359 -0.12649,8.14802 -0.26808,9.00982 l -0.25743,1.56693 z"
       id="path1450"
       inkscape:connector-curvature="0" />
  </g>
</svg>
